<svg width="43" height="42" viewBox="0 0 43 42" fill="none" xmlns="http://www.w3.org/2000/svg">
<path d="M39.875 21C39.875 31.143 31.6522 39.375 21.5 39.375C11.3478 39.375 3.125 31.143 3.125 21C3.125 10.8478 11.3478 2.625 21.5 2.625C31.6522 2.625 39.875 10.8478 39.875 21Z" fill="white"/>
<path d="M30.1128 16.3503C30.0125 16.4088 27.6255 17.6433 27.6255 20.3803C27.738 23.5017 30.6378 24.5964 30.6875 24.5964C30.6378 24.6549 30.2497 26.0876 29.1003 27.5895C28.188 28.8832 27.1755 30.1875 25.638 30.1875C24.1755 30.1875 23.6505 29.3253 21.963 29.3253C20.1508 29.3253 19.638 30.1875 18.2505 30.1875C16.713 30.1875 15.6255 28.8133 14.6635 27.5317C13.4138 25.8544 12.3516 23.2222 12.3141 20.6948C12.2888 19.3555 12.5644 18.039 13.2638 16.9208C14.251 15.3597 16.0135 14.3 17.9383 14.2651C19.413 14.2187 20.7255 15.2086 21.6255 15.2086C22.488 15.2086 24.1005 14.2651 25.925 14.2651C26.7125 14.2658 28.8125 14.4869 30.1128 16.3503ZM21.5008 13.9977C21.2383 12.7746 21.963 11.5516 22.638 10.7714C23.5005 9.82789 24.8628 9.1875 26.0375 9.1875C26.1125 10.4106 25.6372 11.6101 24.7878 12.4837C24.0255 13.4272 22.713 14.1374 21.5008 13.9977Z" fill="url(#paint0_linear_443_1175)"/>
<defs>
<linearGradient id="paint0_linear_443_1175" x1="21.5" y1="9.1875" x2="21.5" y2="30.1875" gradientUnits="userSpaceOnUse">
<stop stop-color="#293645"/>
<stop offset="1" stop-color="#0F1011"/>
</linearGradient>
</defs>
</svg>
