<svg width="24" height="25" viewBox="0 0 24 25" fill="none" xmlns="http://www.w3.org/2000/svg">
<path d="M8.8957 17.7258L8.8957 17.7258L8.89283 17.7246C8.81531 17.6942 8.75 17.6067 8.75 17.5V11.5C8.75 11.3661 8.86614 11.25 9 11.25C9.13386 11.25 9.25 11.3661 9.25 11.5V15.69V16.8971L10.1036 16.0436L10.8236 15.3236C10.9183 15.2288 11.0817 15.2288 11.1764 15.3236C11.2712 15.4183 11.2712 15.5817 11.1764 15.6764L9.17645 17.6764C9.13163 17.7213 9.05941 17.75 9 17.75C8.97479 17.75 8.94799 17.7467 8.8957 17.7258Z" fill="#634B66" stroke="#634B66"/>
<path d="M9 17.75C8.93545 17.75 8.87485 17.7277 8.82356 17.6764L6.82356 15.6764C6.72882 15.5817 6.72882 15.4183 6.82356 15.3236C6.91829 15.2288 7.08171 15.2288 7.17645 15.3236L9.17645 17.3236C9.27119 17.4183 9.27119 17.5817 9.17645 17.6764C9.12516 17.7277 9.06455 17.75 9 17.75Z" fill="#634B66" stroke="#634B66"/>
<path d="M15 22.75H9C6.3424 22.75 4.56492 22.1803 3.4423 21.0577C2.31968 19.9351 1.75 18.1576 1.75 15.5V9.5C1.75 6.8424 2.31968 5.06492 3.4423 3.9423C4.56492 2.81968 6.3424 2.25 9 2.25H14C14.1339 2.25 14.25 2.36614 14.25 2.5C14.25 2.63386 14.1339 2.75 14 2.75H9C6.65972 2.75 4.92432 3.16107 3.7927 4.2927C2.66107 5.42432 2.25 7.15972 2.25 9.5V15.5C2.25 17.8403 2.66107 19.5757 3.7927 20.7073C4.92432 21.8389 6.65972 22.25 9 22.25H15C17.3403 22.25 19.0757 21.8389 20.2073 20.7073C21.3389 19.5757 21.75 17.8403 21.75 15.5V10.5C21.75 10.3661 21.8661 10.25 22 10.25C22.1339 10.25 22.25 10.3661 22.25 10.5V15.5C22.25 18.1576 21.6803 19.9351 20.5577 21.0577C19.4351 22.1803 17.6576 22.75 15 22.75Z" fill="#634B66" stroke="#634B66"/>
<path d="M13.8928 2.27536L13.8999 2.27257L13.907 2.26956C13.9871 2.2352 14.0949 2.24812 14.1815 2.32858L22.1764 10.3235C22.246 10.3931 22.2676 10.5062 22.2304 10.593C22.1876 10.6929 22.096 10.75 22 10.75H18C16.3359 10.75 15.315 10.4229 14.6961 9.80394C14.0771 9.18502 13.75 8.16409 13.75 6.49999V2.49999C13.75 2.39333 13.8153 2.30582 13.8928 2.27536ZM15.1036 3.95644L14.25 3.10288V4.30999V6.49999C14.25 7.79032 14.4062 8.79827 15.0539 9.44604C15.7017 10.0938 16.7097 10.25 18 10.25H20.19H21.3971L20.5436 9.39644L15.1036 3.95644Z" fill="#634B66" stroke="#634B66"/>
</svg>
