<svg width="24" height="25" viewBox="0 0 24 25" fill="none" xmlns="http://www.w3.org/2000/svg">
<g opacity="0.7">
<path opacity="0.4" d="M15.58 12.5C15.58 14.48 13.98 16.08 12 16.08C10.02 16.08 8.42004 14.48 8.42004 12.5C8.42004 10.52 10.02 8.91998 12 8.91998C13.98 8.91998 15.58 10.52 15.58 12.5Z" stroke="#634B66" stroke-width="1.5" stroke-linecap="round" stroke-linejoin="round"/>
<path d="M12 20.77C15.53 20.77 18.82 18.69 21.11 15.09C22.01 13.68 22.01 11.31 21.11 9.89997C18.82 6.29997 15.53 4.21997 12 4.21997C8.46997 4.21997 5.17997 6.29997 2.88997 9.89997C1.98997 11.31 1.98997 13.68 2.88997 15.09C5.17997 18.69 8.46997 20.77 12 20.77Z" stroke="#634B66" stroke-width="1.5" stroke-linecap="round" stroke-linejoin="round"/>
</g>
</svg>
