<svg width="1071" height="742" viewBox="0 0 1071 742" fill="none" xmlns="http://www.w3.org/2000/svg">
<path d="M-26 143.356L598.717 768H604.862L-26 137.131V143.356ZM-26 121.181L620.944 768H627.089L-26 114.957V121.181ZM-26 76.5729L665.399 767.87H671.544L-26 70.4782V76.5729ZM-26 98.877L643.171 768H649.317L-26 92.6526V98.877ZM-26 210.138L531.904 768H538.05L-26 203.914V210.138ZM-26 254.617L487.45 768H493.595L-26 248.392V254.617ZM-26 276.921L465.223 768H471.368L-26 270.696V276.921ZM-26 165.66L576.49 768H582.635L-26 159.435V165.66ZM-26 187.834L554.132 768H560.277L-26 181.739V187.834ZM-26 54.3985L687.757 768H693.902L-26 48.1741V54.3985ZM-26 232.313L509.677 767.87H515.822L-26 226.218V232.313ZM-26 32.0944L709.984 768H716.129L-26 25.9997V32.0944ZM49.442 -26L843.478 768H849.624L55.5872 -26H49.442ZM27.0839 -26L821.251 768H827.396L33.3599 -26H27.0839ZM116.124 -26L910.16 768H916.305L122.269 -26H116.124ZM93.8965 -26L887.933 768H894.078L100.042 -26H93.8965ZM71.6692 -26L865.706 768H871.851L77.8144 -26H71.6692ZM-26 -12.3841L754.439 768H760.584L-26 -18.6085V-12.3841ZM4.85668 -26L799.024 768H805.169L11.0019 -26H4.85668ZM-26 9.91998L732.211 768H738.356L-26 3.69557V9.91998ZM-17.3706 -26L776.666 768H782.811L-11.2254 -26H-17.3706ZM-26 365.878L376.183 768H382.328L-26 359.653V365.878ZM-26 610.575L131.421 768H137.567L-26 604.35V610.575ZM-26 632.879L109.194 768H115.339L-26 626.654V632.879ZM-26 566.096L175.876 768H182.021L-26 559.872V566.096ZM-26 677.357L64.6088 768H70.754L-26 671.133V677.357ZM-26 588.4L153.649 768H159.794L-26 582.176V588.4ZM-26 744.14L-2.073 768H4.07219L-26 737.915V744.14ZM-26 543.792L198.103 767.87H204.248L-26 537.697V543.792ZM-26 766.314L-24.3003 768H-18.1551L-26 760.219V766.314ZM-26 299.095L442.995 768H449.141L-26 292.871V299.095ZM-26 699.532L42.3815 767.87H48.5267L-26 693.437V699.532ZM-26 721.836L20.1543 768H26.2995L-26 715.611V721.836ZM138.351 -26L932.387 768H938.533L144.627 -26H138.351ZM-26 388.052L353.956 767.87H360.101L-26 381.958V388.052ZM-26 410.356L331.728 768H337.873L-26 404.132V410.356ZM-26 343.574L398.41 768H404.555L-26 337.479V343.574ZM-26 321.399L420.637 768H426.783L-26 315.175V321.399ZM-26 521.617L220.461 768H226.606L-26 515.393V521.617ZM-26 499.313L242.688 768H248.834L-26 493.219V499.313ZM-26 432.66L309.37 768H315.515L-26 426.436V432.66ZM-26 477.139L264.916 768H271.061L-26 470.915V477.139ZM-26 454.835L287.143 768H293.288L-26 448.61V454.835ZM-26 655.053L86.8361 768H92.9813L-26 648.958V655.053ZM783.726 -26L1097 287.295V281.07L789.871 -26H783.726ZM650.232 -26L1097 420.73V414.506L656.377 -26H650.232ZM828.181 -26L1097 242.816V236.592L834.326 -26H828.181ZM761.499 -26L1097 309.469V303.374L767.644 -26H761.499ZM850.408 -26L1097 220.512V214.288L856.684 -26H850.408ZM716.914 -26L1097 353.948V347.723L723.19 -26H716.914ZM739.141 -26L1097 331.773V325.549L745.417 -26H739.141ZM672.459 -26L1097 398.556V392.332L678.604 -26H672.459ZM694.686 -26L1097 376.252V370.027L700.832 -26H694.686ZM160.578 -26L954.615 768H960.76L166.854 -26H160.578ZM805.953 -26L1097 264.991V258.766L812.099 -26H805.953ZM1028.49 -26L1097 42.4684V36.244L1034.63 -26H1028.49ZM1006.26 -26L1097 64.7725V58.5481L1012.41 -26H1006.26ZM1050.71 -26L1097 20.294V14.0696L1056.86 -26H1050.71ZM1072.94 -26L1097 -2.01013V-8.23453L1079.22 -26H1072.94ZM894.993 -26L1097 176.034V169.809L901.138 -26H894.993ZM1095.17 -26L1097 -24.1846V-26H1095.17ZM917.221 -26L1097 153.73V147.505L923.366 -26H917.221ZM939.448 -26L1097 131.555V125.331L945.593 -26H939.448ZM984.033 -26L1097 87.0766V80.8522L990.178 -26H984.033ZM961.675 -26L1097 109.251V103.027L967.951 -26H961.675ZM872.766 -26L1097 198.208V191.984L878.911 -26H872.766ZM316.431 -26L1097 754.514V748.289L322.576 -26H316.431ZM294.203 -26L1088.24 768H1094.39L300.349 -26H294.203ZM360.885 -26L1097 710.035V703.811L367.03 -26H360.885ZM383.112 -26L1097 687.731V681.507L389.388 -26H383.112ZM271.845 -26L1065.88 768H1072.03L278.121 -26H271.845ZM338.658 -26L1097 732.21V725.985L344.803 -26H338.658ZM205.164 -26L999.2 768H1005.35L211.309 -26H205.164ZM182.936 -26L976.973 768H983.118L189.081 -26H182.936ZM227.391 -26L1021.43 768H1027.57L233.536 -26H227.391ZM249.618 -26L1043.65 768H1049.8L255.894 -26H249.618ZM427.698 -26L1097 643.253V637.028L433.843 -26H427.698ZM538.965 -26L1097 531.992V525.767L545.11 -26H538.965ZM405.47 -26L1097 665.427V659.203L411.616 -26H405.47ZM516.738 -26L1097 554.296V548.071L522.883 -26H516.738ZM583.419 -26L1097 487.513V481.289L589.565 -26H583.419ZM605.647 -26L1097 465.209V458.984L611.923 -26H605.647ZM561.192 -26L1097 509.687V503.463L567.337 -26H561.192ZM627.874 -26L1097 443.034V436.81L634.15 -26H627.874ZM494.38 -26L1097 576.47V570.246L500.655 -26H494.38ZM449.925 -26L1097 620.949V614.724L456.07 -26H449.925ZM472.152 -26L1097 598.774V592.55L478.297 -26H472.152Z" fill="#F7F2EF"/>
</svg>
