<svg width="108" height="58" viewBox="0 0 108 58" fill="none" xmlns="http://www.w3.org/2000/svg">
<path fill-rule="evenodd" clip-rule="evenodd" d="M42.4681 19.9792C40.469 21.6402 39.2951 23.5712 37.6525 25.3351C34.4476 28.7768 31.1818 32.193 26.7828 35.0826C24.7225 36.4358 22.6382 37.7719 19.653 38.3705C15.9412 39.1154 12.5132 38.9911 9.39432 37.4014C7.09173 36.2281 6.60178 34.5554 6.39724 32.8161C6.06521 29.9924 7.09712 27.285 8.16675 24.5851C10.0718 19.7757 13.3128 15.3507 17.6143 11.2303C18.8062 10.0884 20.6146 9.27627 22.1154 9.31105C22.3536 9.72755 22.2251 9.99511 21.5368 10.2437C19.6446 10.9276 18.1767 11.9127 17.0316 13.0871C13.7462 16.4559 11.3328 20.0629 9.68322 23.8919C8.98603 25.5102 8.18427 27.107 7.89483 28.7835C7.58653 30.57 7.38117 32.3414 7.98996 34.1374C9.04855 37.2609 13.9949 38.3812 17.6868 37.8184C21.6476 37.2144 24.5915 35.6927 27.1954 33.7987C31.5327 30.643 34.992 27.1029 38.1758 23.4558C40.7417 20.5167 43.2874 17.5563 45.456 14.4936C47.2962 11.8944 48.9633 9.25217 51.3219 6.81843C51.8102 6.31447 52.1975 5.75162 53.1469 5.45909C53.9484 5.90985 53.4652 6.36578 53.1316 6.76024C52.3422 7.69293 51.4868 8.6034 50.6309 9.51198C47.7783 12.5396 45.7282 15.7868 44.156 19.1638C43.1933 21.232 42.263 23.3067 41.3316 25.3806C40.9163 26.3048 40.5089 27.2315 40.1488 28.1649C39.9966 28.56 39.9187 28.997 40.8557 29.0714C43.1928 29.256 44.4743 30.1472 44.9734 31.8181C45.417 30.9037 45.784 30.2191 46.0756 29.5216C46.2826 29.0266 46.7609 28.6303 47.4977 28.6866C48.2257 28.742 48.6614 29.1955 48.7307 29.6966C48.7671 29.9584 48.8439 30.1912 49.0619 30.4247C49.9281 31.3509 50.8813 31.4299 51.9757 30.5845C53.5719 29.3517 54.8911 28.0247 55.968 26.5526C58.9177 22.5198 60.9554 18.2331 64.2634 14.3114C65.9869 12.2687 67.5349 10.1845 68.9853 8.0638C69.6453 7.0984 70.2975 6.13093 70.9817 5.17241C71.1397 4.95151 71.2666 4.6793 71.956 4.59286C72.4297 5.65141 71.0874 6.4863 71.0144 7.47546C71.6302 7.52557 71.8107 7.24767 72.1182 7.06413C73.8762 6.01419 75.5775 4.92396 77.9434 4.39572C80.322 3.86472 82.5095 5.00798 82.0864 6.62405C81.1337 10.2584 78.9915 13.6157 76.4207 16.8967C75.1749 18.4869 73.6199 19.9337 72.164 21.4303C71.9112 21.6899 71.5515 21.9281 71.5835 22.3377C77.0452 22.9382 82.454 22.9327 87.8523 22.0472C85.7356 23.087 83.2741 23.3134 80.8033 23.435C77.8669 23.5799 74.9296 23.4064 72.0015 23.2509C70.743 23.1838 69.6186 23.2583 68.7139 23.9071C68.1523 24.31 67.53 24.6822 66.8932 25.0374C66.2747 25.3828 65.5694 25.4729 64.7555 25.1647C65.6473 23.9794 66.9282 23.0827 68.8543 22.5956C70.3692 22.2127 70.9871 21.2578 71.8226 20.5105C74.5666 18.0567 76.4372 15.2818 78.2409 12.5163C79.2257 11.0061 80.1627 9.43829 80.4252 7.77075C80.5009 7.28796 80.5831 6.79984 80.5546 6.31688C80.491 5.23715 79.7124 4.87747 78.1048 5.18292C75.4055 5.69601 73.6746 7.01386 71.7921 8.24062C69.1193 9.98272 68.2135 12.2246 67.2217 14.4404C66.1375 16.8631 65.0725 19.2891 64.3319 21.7728C63.6614 24.0207 63.144 26.279 62.5923 28.5375C61.9927 30.9894 61.6075 33.4466 61.3044 35.9117C61.1707 36.9955 61.1823 38.1316 60.9101 39.1643C60.6206 40.2633 60.4369 41.3912 60.4447 42.4541C60.4563 44.0662 60.1973 45.6717 60.2805 47.2814C60.3094 47.8501 60.3026 48.4264 59.9712 48.9655C59.7397 49.3431 59.42 49.6842 58.6695 49.7339C57.8378 49.789 57.5522 49.3927 57.3293 49.0347C56.4181 47.5691 55.8012 46.0452 55.5587 44.478C54.9577 40.5997 55.2576 36.7331 55.7829 32.8536C56.0397 30.9586 56.9339 29.1444 57.0099 27.2126C56.2842 28.1539 55.3714 29.0015 54.4403 29.8476C53.6121 30.6002 52.5538 31.2017 51.5663 31.8404C50.6331 32.4444 48.7757 32.1286 48.0987 31.346C47.805 31.006 47.6064 30.6327 47.2379 30.0876C46.4289 31.2431 46.0441 32.2863 46.0263 33.3522C46.0142 34.0544 45.521 34.6691 45.4517 35.3574C45.4156 35.7149 44.8874 36.0649 43.9964 35.9174C44.2525 34.3691 43.8797 32.8662 43.265 31.3796C43.0599 30.8836 42.6807 30.4922 41.9453 30.2494C40.5625 29.7928 39.827 30.0225 39.4503 30.9889C37.7966 35.2316 37.1361 39.5605 36.6343 43.9054C36.3308 46.5311 36.1177 49.1652 35.5975 51.7741C35.3903 52.8128 35.5682 53.9891 34.0005 54.8464C32.5113 55.6608 31.6888 55.75 30.4297 54.7684C29.1859 53.7989 28.5677 52.6179 28.0872 51.4318C26.8176 48.2993 26.4381 45.1042 26.9723 41.8907C27.635 37.906 29.6505 34.2775 34.3304 31.4313C35.4035 30.7785 36.6745 30.3011 37.9066 29.7902C38.3165 29.6201 38.7334 29.4939 38.8423 29.1184C39.7365 26.0207 41.1085 23.0004 42.4681 19.9792ZM38.0707 30.8329C35.3453 31.5241 33.5893 32.7336 32.1485 34.0862C28.7356 37.29 27.8444 40.9572 27.8845 44.7299C27.9161 47.6799 28.6262 50.5692 30.4173 53.3271C30.8741 54.031 31.5448 54.683 32.6482 54.6269C33.9663 54.5596 34.1204 53.6768 34.3102 52.9623C35.2671 49.3593 35.2453 45.7012 35.8118 42.0763C36.1638 39.8239 36.4327 37.5658 37.017 35.3304C37.3962 33.881 37.8716 32.44 38.0707 30.8329ZM58.8358 48.794C59.6879 37.6472 60.9381 26.5645 65.2037 15.7064C64.1627 16.2006 63.9762 16.9632 63.4889 17.616C62.4734 18.9768 61.3351 20.3158 60.5708 21.7347C58.7131 25.1827 57.398 28.7115 56.9905 32.3753C56.7768 34.2947 56.4952 36.213 56.3046 38.1352C56.0804 40.3914 56.4879 42.6242 56.8531 44.8561C57.0792 46.2375 57.7413 47.5598 58.8358 48.794Z" fill="#70594C"/>
<path fill-rule="evenodd" clip-rule="evenodd" d="M68.8896 30.7844C79.4184 29.4631 89.9336 28.101 100.727 27.9888C98.9076 28.4943 96.9416 28.4473 95.0352 28.6152C92.3402 28.8524 89.6299 29.0227 86.9454 29.2977C83.7605 29.6239 80.6074 30.0781 77.4192 30.3855C75.5112 30.5697 73.6905 30.9411 71.8234 31.2083C70.8139 31.3528 69.8049 31.4265 68.8896 30.7844Z" fill="#70594C"/>
</svg>
