<svg width="233" height="233" viewBox="0 0 233 233" fill="none" xmlns="http://www.w3.org/2000/svg">
<path d="M116.479 2.82886C53.7165 2.82886 2.82758 53.7177 2.82758 116.481C2.82758 179.244 53.7165 230.133 116.479 230.133C179.242 230.133 230.131 179.244 230.131 116.481C230.131 53.7177 179.262 2.82886 116.479 2.82886Z" fill="url(#paint0_linear_38_292)"/>
<path d="M116.804 14.9148C60.5369 14.9148 14.9153 60.5364 14.9153 116.803C14.9153 173.07 60.5369 218.692 116.804 218.692C173.07 218.692 218.692 173.07 218.692 116.803C218.692 60.5364 173.088 14.9148 116.804 14.9148Z" fill="#70594C"/>
<path d="M116.5 231C179.737 231 231 179.737 231 116.5C231 53.2634 179.737 2 116.5 2C53.2634 2 2 53.2634 2 116.5C2 179.737 53.2634 231 116.5 231Z" stroke="url(#paint1_linear_38_292)" stroke-width="2.36933" stroke-miterlimit="10"/>
<path d="M108.304 198.399C109.672 199.223 110.725 200.434 111.445 201.399C112.164 202.347 112.55 203.102 112.55 203.102C112.55 203.102 112.34 203.137 111.971 203.172C111.603 203.207 111.094 203.224 110.497 203.172C109.286 203.049 107.707 202.768 106.285 201.873C104.864 200.961 103.899 199.715 103.285 198.697C102.688 197.679 102.442 196.854 102.442 196.854C102.442 196.854 103.232 196.854 104.355 196.995C104.917 197.082 105.566 197.223 106.233 197.451C106.566 197.574 106.917 197.714 107.251 197.872C107.602 198.013 107.953 198.188 108.286 198.399H108.304Z" fill="url(#paint2_linear_38_292)"/>
<path d="M107.513 207.436C109.18 206.822 110.444 205.822 111.286 204.927C112.128 204.014 112.549 203.277 112.549 203.277C112.549 203.277 112.339 203.225 111.988 203.19C111.637 203.137 111.128 203.102 110.514 203.049C109.303 202.961 107.706 203.084 106.092 203.646C104.495 204.172 103.161 205.12 102.213 205.945C101.266 206.752 100.722 207.401 100.722 207.401C100.722 207.401 101.564 207.735 102.845 207.858C103.494 207.928 104.231 207.963 105.039 207.928C105.442 207.91 105.846 207.858 106.267 207.787C106.688 207.7 107.109 207.577 107.513 207.436Z" fill="url(#paint3_linear_38_292)"/>
<path d="M97.4585 196.697C98.7044 197.75 99.5818 199.031 100.179 200.084C100.758 201.137 101.038 201.944 101.038 201.944C101.038 201.944 100.196 201.944 99.0027 201.716C97.8094 201.505 96.3003 200.891 95.0017 199.856C93.7031 198.821 92.9309 197.382 92.4571 196.294C92.0008 195.188 91.8605 194.381 91.8605 194.381C91.8605 194.381 92.6502 194.433 93.7382 194.767C94.2822 194.925 94.8964 195.188 95.5281 195.486C96.1774 195.785 96.8267 196.171 97.4585 196.697Z" fill="url(#paint4_linear_38_292)"/>
<path d="M95.4746 205.541C97.1944 205.208 98.5982 204.33 99.5459 203.541C100.493 202.769 101.02 202.102 101.02 202.102C101.02 202.102 100.23 201.803 99.0369 201.61C97.8261 201.435 96.2643 201.224 94.5796 201.61C92.9125 201.979 91.4735 202.663 90.4206 203.348C89.3852 204.015 88.7359 204.611 88.7359 204.611C88.7359 204.611 89.5432 205.015 90.7891 205.348C91.4209 205.506 92.1404 205.682 92.9476 205.717C93.7548 205.752 94.6147 205.717 95.4746 205.541Z" fill="url(#paint5_linear_38_292)"/>
<path d="M86.947 193.591C88.0351 194.784 88.7546 196.153 89.1933 197.293C89.632 198.417 89.7899 199.276 89.7899 199.276C89.7899 199.276 88.9476 199.154 87.8069 198.75C87.2278 198.539 86.5785 198.259 85.9292 197.89C85.2975 197.486 84.6482 196.978 84.0866 196.363C83.5251 195.749 83.0864 195.082 82.7529 194.433C82.4195 193.749 82.2089 193.099 82.051 192.52C81.7527 191.362 81.7176 190.52 81.7176 190.52C81.7176 190.52 82.4897 190.695 83.5251 191.187C84.5604 191.678 85.8766 192.362 86.9646 193.591H86.947Z" fill="url(#paint6_linear_38_292)"/>
<path d="M83.7708 202.085C85.5257 201.962 87.0348 201.26 88.0877 200.646C89.1407 200.014 89.7373 199.435 89.7373 199.435C89.7373 199.435 89.0003 199.014 87.8421 198.645C87.263 198.47 86.5786 198.294 85.824 198.189C85.0869 198.066 84.2797 197.978 83.4198 198.049C82.5775 198.101 81.7527 198.277 81.0157 198.505C80.2786 198.716 79.6293 198.961 79.0678 199.224C77.9447 199.733 77.2427 200.242 77.2427 200.242C77.2427 200.242 77.9798 200.751 79.1731 201.26C80.3664 201.769 82.0335 202.173 83.7883 202.085H83.7708Z" fill="url(#paint7_linear_38_292)"/>
<path d="M76.9435 189.064C77.8911 190.362 78.3825 191.871 78.6632 193.047C78.944 194.223 78.9967 195.048 78.9967 195.048C78.9967 195.048 78.1543 194.872 77.1014 194.276C76.0485 193.679 74.6622 192.837 73.7321 191.415C72.7845 190.029 72.3633 188.52 72.2229 187.326C72.0825 186.133 72.1703 185.291 72.1703 185.291C72.1703 185.291 72.3633 185.361 72.6616 185.519C72.9775 185.659 73.3811 185.922 73.8725 186.203C74.8552 186.782 76.0134 187.73 76.961 189.046L76.9435 189.064Z" fill="url(#paint8_linear_38_292)"/>
<path d="M72.6612 197.066C74.4336 197.154 75.9955 196.715 77.1186 196.242C78.2417 195.75 78.9261 195.224 78.9261 195.224C78.9261 195.224 78.2241 194.767 77.1361 194.206C76.0481 193.644 74.5214 193.17 72.8367 193.013C71.1521 192.872 69.5376 193.258 68.3618 193.609C67.1861 193.96 66.4315 194.364 66.4315 194.364C66.4315 194.364 66.5894 194.522 66.9053 194.75C67.2212 194.978 67.6423 195.329 68.2039 195.627C69.3445 196.242 70.9064 196.943 72.6612 197.066Z" fill="url(#paint9_linear_38_292)"/>
<path d="M67.6433 183.255C68.3979 184.676 68.6611 186.273 68.819 187.431C68.9419 188.624 68.8892 189.467 68.8892 189.467C68.8892 189.467 68.0996 189.151 67.0993 188.466C66.1166 187.747 64.9233 186.659 64.1511 185.185C63.3965 183.676 63.2035 182.096 63.2035 180.921C63.2035 180.341 63.2561 179.833 63.3088 179.464C63.3614 179.113 63.4141 178.902 63.4141 178.902C63.4141 178.902 64.0985 179.306 64.9935 180.008C65.8884 180.728 66.9062 181.833 67.6608 183.237L67.6433 183.255Z" fill="url(#paint10_linear_38_292)"/>
<path d="M62.3254 190.607C64.0628 190.94 65.6597 190.747 66.853 190.379C68.0463 190.028 68.7833 189.624 68.7833 189.624C68.7833 189.624 68.1691 189.045 67.1338 188.396C66.1335 187.712 64.7121 186.974 63.0449 186.641C61.3954 186.273 59.7634 186.413 58.5349 186.624C57.9207 186.729 57.4118 186.852 57.0609 186.957C56.7099 187.062 56.4993 187.132 56.4993 187.132C56.4993 187.132 57.0609 187.834 58.0962 188.607C59.1316 189.379 60.5706 190.309 62.3254 190.625V190.607Z" fill="url(#paint11_linear_38_292)"/>
<path d="M59.185 176.253C59.7114 177.797 59.8167 179.359 59.7992 180.552C59.7641 181.763 59.5886 182.588 59.5886 182.588C59.5886 182.588 58.8516 182.167 57.9566 181.36C57.0441 180.57 56.0613 179.271 55.4647 177.727C54.8856 176.165 54.9382 174.533 55.0962 173.375C55.2541 172.199 55.5524 171.427 55.5524 171.427C55.5524 171.427 56.2193 171.883 56.9739 172.726C57.3599 173.147 57.7635 173.673 58.1496 174.27C58.5532 174.849 58.9218 175.516 59.185 176.288V176.253Z" fill="url(#paint12_linear_38_292)"/>
<path d="M52.9378 182.834C54.5873 183.43 56.2369 183.378 57.4653 183.202C58.6761 183.027 59.4658 182.711 59.4658 182.711C59.4658 182.711 58.9394 182.044 58.0093 181.272C57.0617 180.517 55.8157 179.517 54.1837 178.99C52.5692 178.446 50.9723 178.324 49.7264 178.376C48.4804 178.429 47.6381 178.622 47.6381 178.622C47.6381 178.622 48.1294 179.376 49.042 180.289C49.4982 180.745 50.0422 181.254 50.7091 181.71C51.3759 182.149 52.1305 182.553 52.9729 182.851L52.9378 182.834Z" fill="url(#paint13_linear_38_292)"/>
<path d="M51.708 168.198C52.0239 169.795 51.9537 171.322 51.7431 172.532C51.5501 173.726 51.2518 174.533 51.2518 174.533C51.2518 174.533 50.5849 174.007 49.8128 173.076C49.4267 172.603 48.988 172.059 48.637 171.374C48.286 170.707 47.9877 169.953 47.8122 169.128C47.4262 167.514 47.6894 165.917 48.0228 164.758C48.3387 163.6 48.7423 162.881 48.7423 162.881C48.7423 162.881 49.3214 163.425 49.9707 164.372C50.5849 165.338 51.3921 166.583 51.708 168.198Z" fill="url(#paint14_linear_38_292)"/>
<path d="M44.6543 173.901C46.1986 174.708 47.8833 174.866 49.0941 174.866C50.3225 174.866 51.1298 174.656 51.1298 174.656C51.1298 174.656 50.7086 173.919 49.9014 173.024C49.4978 172.568 48.9889 172.094 48.4097 171.602C47.8306 171.111 47.1813 170.637 46.4092 170.251C44.8649 169.497 43.3031 169.181 42.0572 169.058C40.8288 168.935 39.9689 169.005 39.9689 169.005C39.9689 169.005 40.3549 169.812 41.1095 170.865C41.8466 171.918 43.1101 173.112 44.6543 173.919V173.901Z" fill="url(#paint15_linear_38_292)"/>
<path d="M45.3721 159.213C45.5301 160.81 45.1966 162.355 44.8457 163.513C44.4772 164.671 44.1086 165.426 44.1086 165.426C44.1086 165.426 43.9507 165.285 43.7226 165.004C43.4944 164.724 43.1961 164.303 42.8802 163.794C42.2485 162.758 41.529 161.319 41.4237 159.617C41.3009 157.95 41.7045 156.441 42.1958 155.318C42.6696 154.212 43.1786 153.545 43.1786 153.545C43.1786 153.545 43.6699 154.159 44.1788 155.195C44.7228 156.195 45.2844 157.581 45.3897 159.213H45.3721Z" fill="url(#paint16_linear_38_292)"/>
<path d="M37.6335 163.934C39.1251 164.916 40.7045 165.32 41.9153 165.478C43.1086 165.636 43.9685 165.531 43.9685 165.531C43.9685 165.531 43.8808 165.338 43.7053 165.022C43.5473 164.706 43.3017 164.25 42.9507 163.741C42.2838 162.723 41.2309 161.512 39.8621 160.529C38.4758 159.564 36.8789 159.073 35.7031 158.757C34.5098 158.459 33.6499 158.423 33.6499 158.423C33.6499 158.423 33.9132 159.283 34.5274 160.424C35.1767 161.53 36.212 162.916 37.6335 163.916V163.934Z" fill="url(#paint17_linear_38_292)"/>
<path d="M40.3369 149.474C40.2667 151.071 39.7052 152.58 39.2138 153.668C38.7225 154.756 38.2487 155.458 38.2487 155.458C38.2487 155.458 38.1258 155.282 37.9152 154.984C37.7222 154.686 37.4414 154.247 37.2133 153.685C36.7395 152.562 36.2306 151.036 36.3359 149.351C36.4587 147.666 37.0729 146.227 37.6696 145.209C38.3013 144.192 38.8804 143.577 38.8804 143.577C38.8804 143.577 38.9857 143.753 39.1261 144.051C39.2665 144.367 39.4771 144.788 39.6701 145.332C40.0913 146.385 40.372 147.877 40.3369 149.474Z" fill="url(#paint18_linear_38_292)"/>
<path d="M32.0187 153.106C33.3524 154.282 34.8264 154.914 36.0373 155.212C37.2306 155.51 38.0905 155.528 38.0905 155.528C38.0905 155.528 38.0378 155.317 37.8974 154.984C37.7746 154.651 37.5465 154.177 37.3008 153.633C36.7919 152.527 35.9145 151.193 34.6685 150.035C33.4401 148.877 31.9485 148.175 30.7903 147.736C29.6496 147.28 28.8073 147.122 28.8073 147.122C28.8073 147.122 28.8424 147.35 28.9301 147.719C29.0179 148.105 29.1758 148.614 29.4215 149.21C29.9304 150.386 30.685 151.931 32.0362 153.089L32.0187 153.106Z" fill="url(#paint19_linear_38_292)"/>
<path d="M36.6169 139.155C36.459 139.945 36.1958 140.699 35.8799 141.384C35.5991 142.05 35.2657 142.665 34.9323 143.174C34.3005 144.191 33.7214 144.823 33.7214 144.823C33.7214 144.823 33.3002 144.086 32.9317 142.928C32.5632 141.77 32.3702 140.155 32.6334 138.523C32.9493 136.874 33.8091 135.505 34.5462 134.592C35.2832 133.662 35.9325 133.153 35.9325 133.153C35.9325 133.153 36.2659 133.873 36.4941 134.996C36.6169 135.558 36.7047 136.207 36.7222 136.926C36.7749 137.628 36.7573 138.4 36.5994 139.19L36.6169 139.155Z" fill="url(#paint20_linear_38_292)"/>
<path d="M27.8949 141.629C28.4565 142.296 29.0882 142.84 29.72 143.279C30.3693 143.7 31.0186 144.016 31.5977 144.261C32.7384 144.718 33.5807 144.858 33.5807 144.858C33.5807 144.858 33.4578 144.016 33.0542 142.875C32.6506 141.734 32.054 140.243 30.9308 138.962C29.8253 137.663 28.5091 136.751 27.4211 136.154C26.3331 135.557 25.4908 135.294 25.4908 135.294C25.4908 135.294 25.5259 136.189 25.8418 137.453C25.9997 138.084 26.2278 138.786 26.5437 139.523C26.8947 140.243 27.3509 140.98 27.9125 141.647L27.8949 141.629Z" fill="url(#paint21_linear_38_292)"/>
<path d="M34.3176 128.415C33.7911 129.942 32.9312 131.241 32.1415 132.153C31.3694 133.083 30.7025 133.627 30.7025 133.627C30.7025 133.627 30.4042 132.837 30.2112 131.644C30.1234 131.048 30.0357 130.346 30.0708 129.591C30.1234 128.836 30.2463 128.029 30.5095 127.239C30.7727 126.45 31.1413 125.748 31.5624 125.134C32.0011 124.519 32.475 124.011 32.9137 123.589C33.7911 122.765 34.5106 122.343 34.5106 122.343C34.5106 122.343 34.7387 123.116 34.7914 124.239C34.844 125.379 34.8791 126.871 34.3351 128.398L34.3176 128.415Z" fill="url(#paint22_linear_38_292)"/>
<path d="M25.3321 129.713C26.2622 131.205 27.6135 132.188 28.6664 132.802C29.7193 133.416 30.5265 133.662 30.5265 133.662C30.5265 133.662 30.5265 132.802 30.2984 131.626C30.1931 131.03 30.0001 130.345 29.7368 129.643C29.5087 128.924 29.1753 128.187 28.719 127.467C28.2627 126.748 27.7187 126.116 27.1572 125.59C26.6307 125.046 26.0867 124.589 25.5954 124.221C24.6126 123.484 23.823 123.115 23.823 123.115C23.823 123.115 23.7352 124.01 23.858 125.291C23.9809 126.572 24.4372 128.239 25.3497 129.731L25.3321 129.713Z" fill="url(#paint23_linear_38_292)"/>
<path d="M33.4757 117.465C32.7913 118.922 31.7033 120.08 30.7908 120.887C29.9134 121.694 29.1939 122.151 29.1939 122.151C29.1939 122.151 29.1412 121.94 29.071 121.589C29.0008 121.238 28.9482 120.729 28.9482 120.115C28.9482 118.904 29.071 117.29 29.8256 115.798C30.5978 114.289 31.7384 113.201 32.686 112.499C33.6512 111.797 34.4409 111.464 34.4409 111.464C34.4409 111.464 34.5111 112.253 34.4935 113.394C34.4584 114.535 34.1601 116.009 33.4933 117.465H33.4757Z" fill="url(#paint24_linear_38_292)"/>
<path d="M24.4032 117.57C25.1753 119.167 26.316 120.325 27.2636 121.08C28.2463 121.835 29.036 122.168 29.036 122.168C29.036 122.168 29.0535 121.958 29.071 121.589C29.071 121.221 29.0711 120.711 29.0711 120.115C29.036 118.904 28.7377 117.325 28.0533 115.78C27.3689 114.236 26.2809 113.008 25.3684 112.148C24.4734 111.288 23.7714 110.814 23.7714 110.814C23.7714 110.814 23.5258 111.691 23.5258 112.973C23.5258 114.254 23.631 115.973 24.4207 117.57H24.4032Z" fill="url(#paint25_linear_38_292)"/>
<path d="M34.09 106.497C33.16 107.83 31.9842 108.848 31.0015 109.533C30.0188 110.217 29.2291 110.568 29.2291 110.568C29.2291 110.568 29.1413 109.726 29.2291 108.515C29.3168 107.304 29.7906 105.742 30.6681 104.338C31.563 102.934 32.9318 102.022 33.9497 101.46C35.0026 100.899 35.7923 100.671 35.7923 100.671C35.7923 100.671 35.8098 101.478 35.5992 102.583C35.4939 103.145 35.3009 103.777 35.0728 104.444C34.8446 105.11 34.5288 105.812 34.0725 106.479L34.09 106.497Z" fill="url(#paint26_linear_38_292)"/>
<path d="M25.0874 105.409C25.5788 107.094 26.5966 108.392 27.474 109.27C28.3339 110.147 29.0534 110.586 29.0534 110.586C29.0534 110.586 29.2815 109.761 29.3517 108.55C29.4044 107.339 29.457 105.742 28.913 104.11C28.369 102.478 27.5442 101.127 26.7545 100.162C25.9824 99.1967 25.3155 98.6176 25.3155 98.6176C25.3155 98.6176 24.9997 99.4599 24.7891 100.741C24.7013 101.373 24.596 102.127 24.6311 102.917C24.6662 103.724 24.8066 104.567 25.0523 105.409H25.0874Z" fill="url(#paint27_linear_38_292)"/>
<path d="M36.126 95.7224C34.0553 98.1441 30.7561 99.1269 30.7561 99.1269C30.7561 99.1269 30.7912 98.2845 31.072 97.1088C31.2124 96.5121 31.4405 95.8453 31.7388 95.1609C32.0547 94.4765 32.511 93.7921 33.055 93.1603C34.1606 91.8968 35.5469 91.1423 36.6876 90.7386C37.8107 90.3175 38.6354 90.2122 38.6354 90.2122C38.6354 90.2122 38.5302 91.0019 38.1441 92.0723C37.7756 93.1428 37.214 94.5291 36.0909 95.7224H36.126Z" fill="url(#paint28_linear_38_292)"/>
<path d="M27.3513 93.4233C27.6672 95.1606 28.492 96.5996 29.2115 97.5648C29.9485 98.5475 30.5803 99.074 30.5803 99.074C30.5803 99.074 30.9312 98.3018 31.1769 97.1085C31.2998 96.5119 31.405 95.8099 31.4401 95.0554C31.4752 94.3008 31.4928 93.4935 31.3349 92.6512C31.0365 90.9665 30.317 89.4924 29.7204 88.4395C29.0886 87.3691 28.5271 86.7198 28.5271 86.7198C28.5271 86.7198 28.0884 87.5095 27.7023 88.7379C27.3338 89.9663 27.0881 91.686 27.3513 93.4058V93.4233Z" fill="url(#paint29_linear_38_292)"/>
<path d="M39.6166 85.3163C38.4233 86.3867 36.9668 87.0185 35.8086 87.4221C34.6855 87.8257 33.8607 87.9661 33.8607 87.9661C33.8607 87.9661 33.8958 87.7555 33.966 87.4046C34.0362 87.0536 34.1766 86.5622 34.4223 86.0007C34.9136 84.8951 35.6331 83.4386 36.9317 82.3681C38.2303 81.2801 39.6868 80.7185 40.845 80.4553C42.0208 80.1921 42.8631 80.1921 42.8631 80.1921C42.8631 80.1921 42.8105 80.3851 42.6876 80.701C42.5648 81.0169 42.3718 81.4556 42.1436 81.982C41.6698 83.0174 40.8275 84.2634 39.6342 85.3338L39.6166 85.3163Z" fill="url(#paint30_linear_38_292)"/>
<path d="M31.2289 81.859C31.3166 83.6314 31.9133 85.1406 32.4924 86.211C33.1066 87.2815 33.6857 87.9132 33.6857 87.9132C33.6857 87.9132 33.791 87.7202 33.9489 87.4043C34.0893 87.0709 34.2999 86.5971 34.5105 86.0355C34.9492 84.9124 35.2826 83.3331 35.2651 81.6484C35.23 79.9637 34.7035 78.4019 34.2297 77.2437C33.7559 76.1206 33.2821 75.4011 33.2821 75.4011C33.2821 75.4011 33.1417 75.5766 32.9311 75.91C32.7205 76.2259 32.4397 76.6997 32.1941 77.2963C31.7027 78.4896 31.1236 80.1041 31.2113 81.8765L31.2289 81.859Z" fill="url(#paint31_linear_38_292)"/>
<path d="M44.4783 75.4704C43.1271 76.3478 41.5828 76.7866 40.4421 77.0498C39.2664 77.2955 38.424 77.313 38.424 77.313C38.424 77.313 38.6697 76.5058 39.2313 75.4353C39.8279 74.3824 40.8282 73.1014 42.197 72.1713C43.6184 71.2763 45.1803 70.9253 46.356 70.8025C47.5318 70.6796 48.3741 70.8025 48.3741 70.8025C48.3741 70.8025 48.2864 70.978 48.146 71.2938C47.988 71.5922 47.7599 72.0309 47.444 72.4872C46.8123 73.4348 45.8296 74.5754 44.4959 75.4704H44.4783Z" fill="url(#paint32_linear_38_292)"/>
<path d="M36.6169 70.9257C36.4414 72.6805 36.8275 74.2599 37.3013 75.4006C37.7576 76.5412 38.2489 77.2432 38.2489 77.2432C38.2489 77.2432 38.7754 76.5763 39.3019 75.4883C39.8634 74.4178 40.4952 72.9438 40.6356 71.2415C40.8286 69.5569 40.5478 67.96 40.2144 66.7667C39.8634 65.5558 39.5124 64.8012 39.5124 64.8012C39.5124 64.8012 39.337 64.9591 39.1088 65.2575C38.8631 65.5558 38.5473 65.9945 38.2138 66.5385C37.5295 67.6265 36.7749 69.1708 36.6345 70.9432L36.6169 70.9257Z" fill="url(#paint33_linear_38_292)"/>
<path d="M50.5852 66.3631C49.0935 67.03 47.5843 67.3108 46.3735 67.3985C45.1626 67.4862 44.3203 67.3985 44.3203 67.3985C44.3203 67.3985 44.6713 66.6264 45.3908 65.6436C46.0927 64.6434 47.2685 63.5378 48.7601 62.8008C50.2342 62.0462 51.8838 61.9584 53.0595 61.9935C54.2528 62.0462 55.0601 62.2568 55.0601 62.2568C55.0601 62.2568 54.674 62.9587 53.9018 63.801C53.1122 64.6258 52.0592 65.6787 50.5852 66.3631Z" fill="url(#paint34_linear_38_292)"/>
<path d="M43.4078 60.818C42.9691 62.5027 43.1972 64.1698 43.4956 65.3631C43.7939 66.5564 44.1799 67.2934 44.1799 67.2934C44.1799 67.2934 44.7941 66.6968 45.4785 65.6965C46.1454 64.6787 46.9877 63.3275 47.3738 61.6603C47.7423 59.9757 47.7248 58.3963 47.5493 57.1504C47.3738 55.922 47.1106 55.0972 47.1106 55.0972C47.1106 55.0972 46.4086 55.6587 45.5838 56.6414C44.7415 57.6066 43.8465 59.0807 43.4254 60.8005L43.4078 60.818Z" fill="url(#paint35_linear_38_292)"/>
<path d="M124.289 198.399C122.92 199.224 121.868 200.435 121.148 201.4C120.429 202.348 120.042 203.102 120.042 203.102C120.042 203.102 120.253 203.137 120.622 203.172C120.99 203.207 121.499 203.225 122.096 203.172C123.306 203.05 124.886 202.769 126.307 201.874C127.729 200.961 128.694 199.715 129.308 198.697C129.905 197.68 130.15 196.855 130.15 196.855C130.15 196.855 129.361 196.855 128.238 196.995C127.676 197.083 127.027 197.223 126.36 197.452C126.027 197.574 125.676 197.715 125.342 197.873C124.991 198.013 124.64 198.189 124.307 198.399H124.289Z" fill="url(#paint36_linear_38_292)"/>
<path d="M125.079 207.437C123.412 206.823 122.148 205.822 121.306 204.927C120.464 204.015 120.042 203.278 120.042 203.278C120.042 203.278 120.253 203.225 120.604 203.19C120.955 203.137 121.464 203.102 122.078 203.05C123.289 202.962 124.886 203.085 126.5 203.646C128.097 204.173 129.431 205.12 130.379 205.945C131.326 206.752 131.87 207.402 131.87 207.402C131.87 207.402 131.028 207.735 129.747 207.858C129.098 207.928 128.36 207.963 127.553 207.928C127.15 207.911 126.746 207.858 126.325 207.788C125.904 207.7 125.483 207.577 125.079 207.437Z" fill="url(#paint37_linear_38_292)"/>
<path d="M135.133 196.698C133.887 197.75 133.01 199.032 132.413 200.084C131.834 201.137 131.553 201.945 131.553 201.945C131.553 201.945 132.395 201.945 133.589 201.716C134.782 201.506 136.291 200.892 137.59 199.856C138.888 198.821 139.661 197.382 140.134 196.294C140.591 195.188 140.731 194.381 140.731 194.381C140.731 194.381 139.941 194.434 138.853 194.767C138.309 194.925 137.695 195.188 137.063 195.487C136.414 195.785 135.765 196.171 135.133 196.698Z" fill="url(#paint38_linear_38_292)"/>
<path d="M137.116 205.542C135.396 205.208 133.992 204.331 133.045 203.541C132.097 202.769 131.571 202.102 131.571 202.102C131.571 202.102 132.36 201.804 133.554 201.611C134.764 201.435 136.326 201.225 138.011 201.611C139.678 201.979 141.117 202.664 142.17 203.348C143.205 204.015 143.855 204.612 143.855 204.612C143.855 204.612 143.047 205.015 141.801 205.349C141.17 205.507 140.45 205.682 139.643 205.717C138.836 205.752 137.976 205.717 137.116 205.542Z" fill="url(#paint39_linear_38_292)"/>
<path d="M145.645 193.591C144.557 194.784 143.837 196.153 143.399 197.294C142.96 198.417 142.802 199.277 142.802 199.277C142.802 199.277 143.644 199.154 144.785 198.75C145.364 198.539 145.996 198.259 146.663 197.89C147.294 197.487 147.944 196.978 148.505 196.363C149.067 195.749 149.506 195.082 149.857 194.433C150.19 193.749 150.401 193.099 150.558 192.52C150.857 191.362 150.892 190.52 150.892 190.52C150.892 190.52 150.12 190.695 149.084 191.187C148.049 191.678 146.733 192.362 145.645 193.591Z" fill="url(#paint40_linear_38_292)"/>
<path d="M148.822 202.085C147.067 201.962 145.558 201.26 144.505 200.646C143.452 200.014 142.856 199.435 142.856 199.435C142.856 199.435 143.593 199.014 144.751 198.645C145.33 198.47 146.014 198.294 146.769 198.189C147.506 198.066 148.313 197.978 149.173 198.049C150.015 198.101 150.84 198.277 151.577 198.505C152.314 198.715 152.964 198.961 153.525 199.224C154.648 199.733 155.35 200.242 155.35 200.242C155.35 200.242 154.613 200.751 153.42 201.26C152.227 201.769 150.559 202.173 148.805 202.085H148.822Z" fill="url(#paint41_linear_38_292)"/>
<path d="M155.648 189.064C154.7 190.362 154.209 191.871 153.928 193.047C153.647 194.223 153.595 195.048 153.595 195.048C153.595 195.048 154.437 194.872 155.49 194.275C156.543 193.679 157.929 192.836 158.859 191.415C159.807 190.029 160.228 188.519 160.368 187.326C160.509 186.133 160.421 185.291 160.421 185.291C160.421 185.291 160.228 185.361 159.93 185.519C159.614 185.659 159.21 185.922 158.719 186.203C157.736 186.782 156.578 187.73 155.63 189.046L155.648 189.064Z" fill="url(#paint42_linear_38_292)"/>
<path d="M159.929 197.066C158.157 197.154 156.595 196.715 155.472 196.241C154.349 195.75 153.664 195.224 153.664 195.224C153.664 195.224 154.366 194.767 155.454 194.206C156.542 193.644 158.069 193.17 159.754 193.012C161.438 192.872 163.053 193.258 164.229 193.609C165.404 193.96 166.159 194.364 166.159 194.364C166.159 194.364 166.001 194.522 165.685 194.75C165.369 194.978 164.948 195.329 164.387 195.627C163.246 196.241 161.684 196.943 159.929 197.066Z" fill="url(#paint43_linear_38_292)"/>
<path d="M164.967 183.254C164.213 184.676 163.949 186.273 163.791 187.431C163.669 188.624 163.721 189.467 163.721 189.467C163.721 189.467 164.511 189.151 165.511 188.466C166.494 187.747 167.687 186.659 168.459 185.185C169.214 183.676 169.407 182.096 169.407 180.921C169.407 180.341 169.354 179.833 169.302 179.464C169.249 179.113 169.196 178.902 169.196 178.902C169.196 178.902 168.512 179.306 167.617 180.008C166.722 180.728 165.704 181.833 164.95 183.237L164.967 183.254Z" fill="url(#paint44_linear_38_292)"/>
<path d="M170.266 190.607C168.529 190.94 166.932 190.747 165.739 190.379C164.546 190.028 163.809 189.624 163.809 189.624C163.809 189.624 164.423 189.045 165.458 188.396C166.458 187.711 167.88 186.974 169.547 186.641C171.196 186.272 172.829 186.413 174.057 186.623C174.671 186.729 175.18 186.852 175.531 186.957C175.882 187.062 176.093 187.132 176.093 187.132C176.093 187.132 175.531 187.834 174.496 188.606C173.46 189.379 172.021 190.309 170.266 190.625V190.607Z" fill="url(#paint45_linear_38_292)"/>
<path d="M173.425 176.253C172.899 177.797 172.794 179.359 172.811 180.552C172.846 181.763 173.022 182.588 173.022 182.588C173.022 182.588 173.759 182.167 174.654 181.36C175.566 180.57 176.549 179.271 177.146 177.727C177.725 176.165 177.672 174.533 177.514 173.375C177.356 172.199 177.058 171.427 177.058 171.427C177.058 171.427 176.391 171.883 175.636 172.726C175.25 173.147 174.847 173.673 174.461 174.27C174.057 174.849 173.689 175.516 173.425 176.288V176.253Z" fill="url(#paint46_linear_38_292)"/>
<path d="M179.655 182.833C178.006 183.43 176.356 183.377 175.128 183.202C173.917 183.027 173.127 182.711 173.127 182.711C173.127 182.711 173.654 182.044 174.584 181.272C175.531 180.517 176.777 179.517 178.409 178.99C180.024 178.446 181.621 178.323 182.867 178.376C184.113 178.429 184.955 178.622 184.955 178.622C184.955 178.622 184.464 179.376 183.551 180.289C183.095 180.745 182.551 181.254 181.884 181.71C181.217 182.149 180.463 182.553 179.62 182.851L179.655 182.833Z" fill="url(#paint47_linear_38_292)"/>
<path d="M180.883 168.198C180.567 169.795 180.638 171.322 180.848 172.532C181.041 173.726 181.34 174.533 181.34 174.533C181.34 174.533 182.006 174.007 182.779 173.076C183.165 172.603 183.603 172.059 183.954 171.374C184.305 170.707 184.604 169.953 184.779 169.128C185.165 167.514 184.902 165.917 184.568 164.758C184.253 163.6 183.849 162.881 183.849 162.881C183.849 162.881 183.27 163.425 182.621 164.372C182.006 165.338 181.199 166.583 180.883 168.198Z" fill="url(#paint48_linear_38_292)"/>
<path d="M187.937 173.901C186.392 174.708 184.708 174.866 183.497 174.866C182.268 174.866 181.461 174.656 181.461 174.656C181.461 174.656 181.882 173.919 182.689 173.024C183.093 172.567 183.602 172.094 184.181 171.602C184.743 171.111 185.41 170.637 186.182 170.251C187.726 169.496 189.288 169.181 190.534 169.058C191.762 168.935 192.622 169.005 192.622 169.005C192.622 169.005 192.236 169.812 191.481 170.865C190.744 171.918 189.481 173.111 187.937 173.919V173.901Z" fill="url(#paint49_linear_38_292)"/>
<path d="M187.218 159.213C187.06 160.81 187.394 162.355 187.745 163.513C188.113 164.671 188.482 165.426 188.482 165.426C188.482 165.426 188.64 165.285 188.868 165.004C189.096 164.724 189.394 164.302 189.71 163.794C190.342 162.758 191.061 161.319 191.167 159.617C191.289 157.95 190.886 156.441 190.394 155.318C189.921 154.212 189.412 153.545 189.412 153.545C189.412 153.545 188.92 154.159 188.411 155.195C187.867 156.195 187.306 157.581 187.201 159.213H187.218Z" fill="url(#paint50_linear_38_292)"/>
<path d="M194.958 163.934C193.466 164.916 191.887 165.32 190.676 165.478C189.483 165.636 188.623 165.531 188.623 165.531C188.623 165.531 188.711 165.338 188.886 165.022C189.044 164.706 189.29 164.249 189.641 163.741C190.308 162.723 191.36 161.512 192.729 160.529C194.116 159.564 195.712 159.073 196.888 158.757C198.082 158.458 198.941 158.423 198.941 158.423C198.941 158.423 198.678 159.283 198.064 160.424C197.415 161.529 196.379 162.916 194.958 163.916V163.934Z" fill="url(#paint51_linear_38_292)"/>
<path d="M192.254 149.474C192.324 151.071 192.886 152.58 193.377 153.668C193.869 154.756 194.342 155.458 194.342 155.458C194.342 155.458 194.465 155.282 194.676 154.984C194.869 154.686 195.15 154.247 195.378 153.685C195.852 152.562 196.36 151.036 196.255 149.351C196.132 147.666 195.518 146.227 194.921 145.209C194.29 144.192 193.711 143.577 193.711 143.577C193.711 143.577 193.605 143.753 193.465 144.051C193.325 144.367 193.114 144.788 192.921 145.332C192.5 146.385 192.219 147.877 192.254 149.474Z" fill="url(#paint52_linear_38_292)"/>
<path d="M200.571 153.106C199.237 154.282 197.763 154.914 196.552 155.212C195.359 155.51 194.499 155.528 194.499 155.528C194.499 155.528 194.552 155.317 194.692 154.984C194.815 154.65 195.043 154.177 195.289 153.633C195.798 152.527 196.675 151.193 197.921 150.035C199.149 148.877 200.641 148.175 201.799 147.736C202.94 147.28 203.782 147.122 203.782 147.122C203.782 147.122 203.747 147.35 203.659 147.719C203.572 148.105 203.414 148.614 203.168 149.21C202.659 150.386 201.905 151.93 200.553 153.089L200.571 153.106Z" fill="url(#paint53_linear_38_292)"/>
<path d="M195.974 139.156C196.132 139.945 196.395 140.7 196.711 141.384C196.992 142.051 197.325 142.665 197.659 143.174C198.29 144.192 198.869 144.824 198.869 144.824C198.869 144.824 199.291 144.087 199.659 142.929C200.028 141.77 200.221 140.156 199.957 138.524C199.642 136.874 198.782 135.505 198.045 134.593C197.308 133.663 196.658 133.154 196.658 133.154C196.658 133.154 196.325 133.873 196.097 134.997C195.974 135.558 195.886 136.207 195.869 136.927C195.816 137.629 195.834 138.401 195.991 139.191L195.974 139.156Z" fill="url(#paint54_linear_38_292)"/>
<path d="M204.697 141.63C204.136 142.297 203.504 142.841 202.872 143.279C202.223 143.701 201.573 144.016 200.994 144.262C199.854 144.718 199.011 144.859 199.011 144.859C199.011 144.859 199.134 144.016 199.538 142.876C199.941 141.735 200.538 140.244 201.661 138.962C202.767 137.664 204.083 136.751 205.171 136.155C206.259 135.558 207.084 135.295 207.084 135.295C207.084 135.295 207.049 136.19 206.733 137.453C206.575 138.085 206.347 138.787 206.031 139.524C205.68 140.244 205.224 140.981 204.662 141.647L204.697 141.63Z" fill="url(#paint55_linear_38_292)"/>
<path d="M198.274 128.415C198.8 129.942 199.66 131.24 200.45 132.153C201.222 133.083 201.889 133.627 201.889 133.627C201.889 133.627 202.187 132.837 202.38 131.644C202.468 131.047 202.555 130.346 202.52 129.591C202.468 128.836 202.345 128.029 202.082 127.239C201.818 126.45 201.45 125.748 201.029 125.134C200.59 124.519 200.116 124.01 199.678 123.589C198.8 122.765 198.081 122.343 198.081 122.343C198.081 122.343 197.852 123.115 197.8 124.239C197.747 125.379 197.712 126.871 198.256 128.398L198.274 128.415Z" fill="url(#paint56_linear_38_292)"/>
<path d="M207.259 129.714C206.329 131.206 204.978 132.188 203.925 132.803C202.872 133.417 202.065 133.662 202.065 133.662C202.065 133.662 202.065 132.803 202.293 131.627C202.398 131.03 202.591 130.346 202.855 129.644C203.083 128.924 203.416 128.187 203.872 127.468C204.329 126.748 204.873 126.117 205.434 125.59C205.961 125.046 206.505 124.59 206.996 124.221C207.979 123.484 208.768 123.116 208.768 123.116C208.768 123.116 208.856 124.011 208.733 125.292C208.61 126.573 208.154 128.24 207.242 129.732L207.259 129.714Z" fill="url(#paint57_linear_38_292)"/>
<path d="M199.116 117.465C199.8 118.922 200.888 120.08 201.801 120.887C202.678 121.694 203.397 122.151 203.397 122.151C203.397 122.151 203.45 121.94 203.52 121.589C203.59 121.238 203.643 120.729 203.643 120.115C203.643 118.904 203.52 117.29 202.766 115.798C201.994 114.289 200.853 113.201 199.905 112.499C198.94 111.797 198.15 111.464 198.15 111.464C198.15 111.464 198.08 112.253 198.098 113.394C198.133 114.535 198.431 116.009 199.098 117.465H199.116Z" fill="url(#paint58_linear_38_292)"/>
<path d="M208.189 117.57C207.417 119.167 206.276 120.325 205.329 121.08C204.346 121.834 203.556 122.168 203.556 122.168C203.556 122.168 203.538 121.958 203.52 121.589C203.52 121.221 203.521 120.711 203.521 120.115C203.556 118.904 203.855 117.325 204.539 115.78C205.223 114.236 206.311 113.008 207.224 112.148C208.119 111.288 208.821 110.814 208.821 110.814C208.821 110.814 209.066 111.691 209.066 112.972C209.066 114.253 208.961 115.973 208.171 117.57H208.189Z" fill="url(#paint59_linear_38_292)"/>
<path d="M198.502 106.497C199.432 107.831 200.608 108.849 201.591 109.533C202.573 110.217 203.363 110.568 203.363 110.568C203.363 110.568 203.468 109.726 203.363 108.515C203.275 107.304 202.802 105.743 201.924 104.339C201.029 102.935 199.66 102.022 198.643 101.461C197.59 100.899 196.8 100.671 196.8 100.671C196.8 100.671 196.782 101.478 196.993 102.584C197.098 103.145 197.291 103.777 197.519 104.444C197.748 105.111 198.063 105.813 198.52 106.48L198.502 106.497Z" fill="url(#paint60_linear_38_292)"/>
<path d="M207.505 105.409C207.014 107.094 205.996 108.393 205.118 109.27C204.259 110.148 203.539 110.586 203.539 110.586C203.539 110.586 203.311 109.761 203.241 108.551C203.188 107.34 203.135 105.743 203.679 104.111C204.223 102.479 205.048 101.128 205.838 100.162C206.61 99.1972 207.277 98.6181 207.277 98.6181C207.277 98.6181 207.593 99.4605 207.803 100.742C207.891 101.373 207.996 102.128 207.961 102.918C207.926 103.725 207.786 104.567 207.54 105.409H207.505Z" fill="url(#paint61_linear_38_292)"/>
<path d="M196.467 95.7224C198.538 98.1441 201.837 99.1268 201.837 99.1268C201.837 99.1268 201.802 98.2845 201.521 97.1087C201.381 96.512 201.153 95.8452 200.855 95.1608C200.539 94.4764 200.082 93.792 199.538 93.1603C198.433 91.8968 197.047 91.1422 195.906 90.7386C194.783 90.3174 193.958 90.2121 193.958 90.2121C193.958 90.2121 194.063 91.0018 194.449 92.0723C194.818 93.1427 195.379 94.5291 196.503 95.7224H196.467Z" fill="url(#paint62_linear_38_292)"/>
<path d="M205.242 93.4233C204.926 95.1606 204.102 96.5996 203.382 97.5648C202.645 98.5475 202.013 99.074 202.013 99.074C202.013 99.074 201.662 98.3018 201.417 97.1085C201.294 96.5119 201.189 95.8099 201.153 95.0553C201.118 94.3007 201.101 93.4935 201.259 92.6512C201.557 90.9665 202.277 89.4924 202.873 88.4395C203.505 87.369 204.067 86.7197 204.067 86.7197C204.067 86.7197 204.505 87.5094 204.891 88.7378C205.26 89.9662 205.506 91.686 205.242 93.4058V93.4233Z" fill="url(#paint63_linear_38_292)"/>
<path d="M192.974 85.3162C194.167 86.3867 195.624 87.0184 196.782 87.422C197.905 87.8257 198.73 87.966 198.73 87.966C198.73 87.966 198.695 87.7555 198.625 87.4045C198.554 87.0535 198.414 86.5622 198.168 86.0006C197.677 84.895 196.958 83.4385 195.659 82.368C194.36 81.28 192.904 80.7185 191.746 80.4552C190.57 80.192 189.728 80.192 189.728 80.192C189.728 80.192 189.78 80.385 189.903 80.7009C190.026 81.0168 190.219 81.4555 190.447 81.982C190.921 83.0173 191.763 84.2633 192.956 85.3337L192.974 85.3162Z" fill="url(#paint64_linear_38_292)"/>
<path d="M201.363 81.859C201.275 83.6314 200.678 85.1406 200.099 86.211C199.485 87.2815 198.906 87.9132 198.906 87.9132C198.906 87.9132 198.8 87.7202 198.642 87.4043C198.502 87.0709 198.292 86.5971 198.081 86.0355C197.642 84.9124 197.309 83.3331 197.326 81.6484C197.361 79.9637 197.888 78.4019 198.362 77.2437C198.836 76.1206 199.309 75.4011 199.309 75.4011C199.309 75.4011 199.45 75.5766 199.66 75.91C199.871 76.2259 200.152 76.6997 200.397 77.2963C200.889 78.4896 201.468 80.1041 201.38 81.8765L201.363 81.859Z" fill="url(#paint65_linear_38_292)"/>
<path d="M188.114 75.4704C189.465 76.3479 191.009 76.7866 192.15 77.0498C193.326 77.2955 194.168 77.313 194.168 77.313C194.168 77.313 193.922 76.5058 193.361 75.4353C192.764 74.3824 191.764 73.1014 190.395 72.1713C188.974 71.2763 187.412 70.9253 186.236 70.8025C185.06 70.6797 184.218 70.8025 184.218 70.8025C184.218 70.8025 184.306 70.978 184.446 71.2939C184.604 71.5922 184.832 72.0309 185.148 72.4872C185.78 73.4348 186.762 74.5755 188.096 75.4704H188.114Z" fill="url(#paint66_linear_38_292)"/>
<path d="M195.975 70.9263C196.151 72.6811 195.764 74.2605 195.291 75.4012C194.834 76.5418 194.343 77.2438 194.343 77.2438C194.343 77.2438 193.817 76.5769 193.29 75.4889C192.729 74.4184 192.097 72.9444 191.956 71.2421C191.763 69.5575 192.044 67.9606 192.378 66.7673C192.729 65.5564 193.08 64.8018 193.08 64.8018C193.08 64.8018 193.255 64.9597 193.483 65.2581C193.729 65.5564 194.045 65.9951 194.378 66.5391C195.063 67.6271 195.817 69.1714 195.958 70.9438L195.975 70.9263Z" fill="url(#paint67_linear_38_292)"/>
<path d="M182.006 66.3636C183.498 67.0305 185.007 67.3112 186.218 67.399C187.428 67.4867 188.271 67.399 188.271 67.399C188.271 67.399 187.92 66.6268 187.2 65.6441C186.498 64.6438 185.323 63.5383 183.831 62.8012C182.357 62.0466 180.707 61.9589 179.532 61.994C178.338 62.0466 177.531 62.2572 177.531 62.2572C177.531 62.2572 177.917 62.9592 178.689 63.8015C179.479 64.6263 180.532 65.6792 182.006 66.3636Z" fill="url(#paint68_linear_38_292)"/>
<path d="M189.183 60.8185C189.622 62.5032 189.394 64.1703 189.095 65.3636C188.797 66.5569 188.411 67.2939 188.411 67.2939C188.411 67.2939 187.797 66.6973 187.112 65.697C186.446 64.6792 185.603 63.3279 185.217 61.6608C184.849 59.9762 184.866 58.3968 185.042 57.1508C185.217 55.9224 185.48 55.0976 185.48 55.0976C185.48 55.0976 186.182 55.6592 187.007 56.6419C187.849 57.6071 188.744 59.0812 189.166 60.8009L189.183 60.8185Z" fill="url(#paint69_linear_38_292)"/>
<path d="M116.5 42.5302L119.104 37.2243L124.962 36.3564L120.721 32.234L121.727 26.3956L116.5 29.157L111.253 26.3956L112.259 32.234L108.019 36.3564L113.877 37.2243L116.5 42.5302Z" fill="url(#paint70_linear_38_292)"/>
<path d="M136.894 44.6015L138.886 40.558L143.364 39.9071L140.129 36.7512L140.878 32.2935L136.894 34.3843L132.89 32.2935L133.659 36.7512L130.405 39.9071L134.882 40.558L136.894 44.6015Z" fill="url(#paint71_linear_38_292)"/>
<path d="M96.0847 44.6015L98.0966 40.558L102.574 39.9071L99.3195 36.7512L100.089 32.2935L96.0847 34.3843L92.1004 32.2935L92.8499 36.7512L89.6151 39.9071L94.0926 40.558L96.0847 44.6015Z" fill="url(#paint72_linear_38_292)"/>
<defs>
<linearGradient id="paint0_linear_38_292" x1="36.1223" y1="36.1236" x2="196.856" y2="196.858" gradientUnits="userSpaceOnUse">
<stop stop-color="#BA7418"/>
<stop offset="0.04" stop-color="#C28124"/>
<stop offset="0.25" stop-color="#F4D06F"/>
<stop offset="0.35" stop-color="#F9DD95"/>
<stop offset="0.44" stop-color="#FDE5AF"/>
<stop offset="0.48" stop-color="#FFE9B9"/>
<stop offset="0.53" stop-color="#FDE5AC"/>
<stop offset="0.62" stop-color="#FADD8A"/>
<stop offset="0.67" stop-color="#F9D876"/>
<stop offset="0.73" stop-color="#F0CB69"/>
<stop offset="0.85" stop-color="#DBA94A"/>
<stop offset="1" stop-color="#BA7418"/>
</linearGradient>
<linearGradient id="paint1_linear_38_292" x1="0.00783802" y1="116.5" x2="232.972" y2="116.5" gradientUnits="userSpaceOnUse">
<stop stop-color="#BA7418"/>
<stop offset="0.04" stop-color="#C28124"/>
<stop offset="0.25" stop-color="#F4D06F"/>
<stop offset="0.35" stop-color="#F9DD95"/>
<stop offset="0.44" stop-color="#FDE5AF"/>
<stop offset="0.48" stop-color="#FFE9B9"/>
<stop offset="0.53" stop-color="#FDE5AC"/>
<stop offset="0.62" stop-color="#FADD8A"/>
<stop offset="0.67" stop-color="#F9D876"/>
<stop offset="0.73" stop-color="#F0CB69"/>
<stop offset="0.85" stop-color="#DBA94A"/>
<stop offset="1" stop-color="#BA7418"/>
</linearGradient>
<linearGradient id="paint2_linear_38_292" x1="42.1814" y1="45.8433" x2="160.078" y2="220.882" gradientUnits="userSpaceOnUse">
<stop stop-color="#BA7418"/>
<stop offset="0.04" stop-color="#C28124"/>
<stop offset="0.25" stop-color="#F4D06F"/>
<stop offset="0.35" stop-color="#F9DD95"/>
<stop offset="0.44" stop-color="#FDE5AF"/>
<stop offset="0.48" stop-color="#FFE9B9"/>
<stop offset="0.53" stop-color="#FDE5AC"/>
<stop offset="0.62" stop-color="#FADD8A"/>
<stop offset="0.67" stop-color="#F9D876"/>
<stop offset="0.73" stop-color="#F0CB69"/>
<stop offset="0.85" stop-color="#DBA94A"/>
<stop offset="1" stop-color="#BA7418"/>
</linearGradient>
<linearGradient id="paint3_linear_38_292" x1="42.1814" y1="45.8433" x2="160.078" y2="220.882" gradientUnits="userSpaceOnUse">
<stop stop-color="#BA7418"/>
<stop offset="0.04" stop-color="#C28124"/>
<stop offset="0.25" stop-color="#F4D06F"/>
<stop offset="0.35" stop-color="#F9DD95"/>
<stop offset="0.44" stop-color="#FDE5AF"/>
<stop offset="0.48" stop-color="#FFE9B9"/>
<stop offset="0.53" stop-color="#FDE5AC"/>
<stop offset="0.62" stop-color="#FADD8A"/>
<stop offset="0.67" stop-color="#F9D876"/>
<stop offset="0.73" stop-color="#F0CB69"/>
<stop offset="0.85" stop-color="#DBA94A"/>
<stop offset="1" stop-color="#BA7418"/>
</linearGradient>
<linearGradient id="paint4_linear_38_292" x1="42.1814" y1="45.8433" x2="160.078" y2="220.882" gradientUnits="userSpaceOnUse">
<stop stop-color="#BA7418"/>
<stop offset="0.04" stop-color="#C28124"/>
<stop offset="0.25" stop-color="#F4D06F"/>
<stop offset="0.35" stop-color="#F9DD95"/>
<stop offset="0.44" stop-color="#FDE5AF"/>
<stop offset="0.48" stop-color="#FFE9B9"/>
<stop offset="0.53" stop-color="#FDE5AC"/>
<stop offset="0.62" stop-color="#FADD8A"/>
<stop offset="0.67" stop-color="#F9D876"/>
<stop offset="0.73" stop-color="#F0CB69"/>
<stop offset="0.85" stop-color="#DBA94A"/>
<stop offset="1" stop-color="#BA7418"/>
</linearGradient>
<linearGradient id="paint5_linear_38_292" x1="42.1814" y1="45.8433" x2="160.078" y2="220.882" gradientUnits="userSpaceOnUse">
<stop stop-color="#BA7418"/>
<stop offset="0.04" stop-color="#C28124"/>
<stop offset="0.25" stop-color="#F4D06F"/>
<stop offset="0.35" stop-color="#F9DD95"/>
<stop offset="0.44" stop-color="#FDE5AF"/>
<stop offset="0.48" stop-color="#FFE9B9"/>
<stop offset="0.53" stop-color="#FDE5AC"/>
<stop offset="0.62" stop-color="#FADD8A"/>
<stop offset="0.67" stop-color="#F9D876"/>
<stop offset="0.73" stop-color="#F0CB69"/>
<stop offset="0.85" stop-color="#DBA94A"/>
<stop offset="1" stop-color="#BA7418"/>
</linearGradient>
<linearGradient id="paint6_linear_38_292" x1="42.1814" y1="45.8433" x2="160.078" y2="220.882" gradientUnits="userSpaceOnUse">
<stop stop-color="#BA7418"/>
<stop offset="0.04" stop-color="#C28124"/>
<stop offset="0.25" stop-color="#F4D06F"/>
<stop offset="0.35" stop-color="#F9DD95"/>
<stop offset="0.44" stop-color="#FDE5AF"/>
<stop offset="0.48" stop-color="#FFE9B9"/>
<stop offset="0.53" stop-color="#FDE5AC"/>
<stop offset="0.62" stop-color="#FADD8A"/>
<stop offset="0.67" stop-color="#F9D876"/>
<stop offset="0.73" stop-color="#F0CB69"/>
<stop offset="0.85" stop-color="#DBA94A"/>
<stop offset="1" stop-color="#BA7418"/>
</linearGradient>
<linearGradient id="paint7_linear_38_292" x1="42.1814" y1="45.8433" x2="160.078" y2="220.882" gradientUnits="userSpaceOnUse">
<stop stop-color="#BA7418"/>
<stop offset="0.04" stop-color="#C28124"/>
<stop offset="0.25" stop-color="#F4D06F"/>
<stop offset="0.35" stop-color="#F9DD95"/>
<stop offset="0.44" stop-color="#FDE5AF"/>
<stop offset="0.48" stop-color="#FFE9B9"/>
<stop offset="0.53" stop-color="#FDE5AC"/>
<stop offset="0.62" stop-color="#FADD8A"/>
<stop offset="0.67" stop-color="#F9D876"/>
<stop offset="0.73" stop-color="#F0CB69"/>
<stop offset="0.85" stop-color="#DBA94A"/>
<stop offset="1" stop-color="#BA7418"/>
</linearGradient>
<linearGradient id="paint8_linear_38_292" x1="42.1814" y1="45.8433" x2="160.078" y2="220.882" gradientUnits="userSpaceOnUse">
<stop stop-color="#BA7418"/>
<stop offset="0.04" stop-color="#C28124"/>
<stop offset="0.25" stop-color="#F4D06F"/>
<stop offset="0.35" stop-color="#F9DD95"/>
<stop offset="0.44" stop-color="#FDE5AF"/>
<stop offset="0.48" stop-color="#FFE9B9"/>
<stop offset="0.53" stop-color="#FDE5AC"/>
<stop offset="0.62" stop-color="#FADD8A"/>
<stop offset="0.67" stop-color="#F9D876"/>
<stop offset="0.73" stop-color="#F0CB69"/>
<stop offset="0.85" stop-color="#DBA94A"/>
<stop offset="1" stop-color="#BA7418"/>
</linearGradient>
<linearGradient id="paint9_linear_38_292" x1="42.1814" y1="45.8433" x2="160.078" y2="220.882" gradientUnits="userSpaceOnUse">
<stop stop-color="#BA7418"/>
<stop offset="0.04" stop-color="#C28124"/>
<stop offset="0.25" stop-color="#F4D06F"/>
<stop offset="0.35" stop-color="#F9DD95"/>
<stop offset="0.44" stop-color="#FDE5AF"/>
<stop offset="0.48" stop-color="#FFE9B9"/>
<stop offset="0.53" stop-color="#FDE5AC"/>
<stop offset="0.62" stop-color="#FADD8A"/>
<stop offset="0.67" stop-color="#F9D876"/>
<stop offset="0.73" stop-color="#F0CB69"/>
<stop offset="0.85" stop-color="#DBA94A"/>
<stop offset="1" stop-color="#BA7418"/>
</linearGradient>
<linearGradient id="paint10_linear_38_292" x1="42.1814" y1="45.8433" x2="160.078" y2="220.882" gradientUnits="userSpaceOnUse">
<stop stop-color="#BA7418"/>
<stop offset="0.04" stop-color="#C28124"/>
<stop offset="0.25" stop-color="#F4D06F"/>
<stop offset="0.35" stop-color="#F9DD95"/>
<stop offset="0.44" stop-color="#FDE5AF"/>
<stop offset="0.48" stop-color="#FFE9B9"/>
<stop offset="0.53" stop-color="#FDE5AC"/>
<stop offset="0.62" stop-color="#FADD8A"/>
<stop offset="0.67" stop-color="#F9D876"/>
<stop offset="0.73" stop-color="#F0CB69"/>
<stop offset="0.85" stop-color="#DBA94A"/>
<stop offset="1" stop-color="#BA7418"/>
</linearGradient>
<linearGradient id="paint11_linear_38_292" x1="42.1814" y1="45.8433" x2="160.078" y2="220.882" gradientUnits="userSpaceOnUse">
<stop stop-color="#BA7418"/>
<stop offset="0.04" stop-color="#C28124"/>
<stop offset="0.25" stop-color="#F4D06F"/>
<stop offset="0.35" stop-color="#F9DD95"/>
<stop offset="0.44" stop-color="#FDE5AF"/>
<stop offset="0.48" stop-color="#FFE9B9"/>
<stop offset="0.53" stop-color="#FDE5AC"/>
<stop offset="0.62" stop-color="#FADD8A"/>
<stop offset="0.67" stop-color="#F9D876"/>
<stop offset="0.73" stop-color="#F0CB69"/>
<stop offset="0.85" stop-color="#DBA94A"/>
<stop offset="1" stop-color="#BA7418"/>
</linearGradient>
<linearGradient id="paint12_linear_38_292" x1="42.1814" y1="45.8433" x2="160.078" y2="220.882" gradientUnits="userSpaceOnUse">
<stop stop-color="#BA7418"/>
<stop offset="0.04" stop-color="#C28124"/>
<stop offset="0.25" stop-color="#F4D06F"/>
<stop offset="0.35" stop-color="#F9DD95"/>
<stop offset="0.44" stop-color="#FDE5AF"/>
<stop offset="0.48" stop-color="#FFE9B9"/>
<stop offset="0.53" stop-color="#FDE5AC"/>
<stop offset="0.62" stop-color="#FADD8A"/>
<stop offset="0.67" stop-color="#F9D876"/>
<stop offset="0.73" stop-color="#F0CB69"/>
<stop offset="0.85" stop-color="#DBA94A"/>
<stop offset="1" stop-color="#BA7418"/>
</linearGradient>
<linearGradient id="paint13_linear_38_292" x1="42.1814" y1="45.8433" x2="160.078" y2="220.882" gradientUnits="userSpaceOnUse">
<stop stop-color="#BA7418"/>
<stop offset="0.04" stop-color="#C28124"/>
<stop offset="0.25" stop-color="#F4D06F"/>
<stop offset="0.35" stop-color="#F9DD95"/>
<stop offset="0.44" stop-color="#FDE5AF"/>
<stop offset="0.48" stop-color="#FFE9B9"/>
<stop offset="0.53" stop-color="#FDE5AC"/>
<stop offset="0.62" stop-color="#FADD8A"/>
<stop offset="0.67" stop-color="#F9D876"/>
<stop offset="0.73" stop-color="#F0CB69"/>
<stop offset="0.85" stop-color="#DBA94A"/>
<stop offset="1" stop-color="#BA7418"/>
</linearGradient>
<linearGradient id="paint14_linear_38_292" x1="42.1814" y1="45.8433" x2="160.078" y2="220.882" gradientUnits="userSpaceOnUse">
<stop stop-color="#BA7418"/>
<stop offset="0.04" stop-color="#C28124"/>
<stop offset="0.25" stop-color="#F4D06F"/>
<stop offset="0.35" stop-color="#F9DD95"/>
<stop offset="0.44" stop-color="#FDE5AF"/>
<stop offset="0.48" stop-color="#FFE9B9"/>
<stop offset="0.53" stop-color="#FDE5AC"/>
<stop offset="0.62" stop-color="#FADD8A"/>
<stop offset="0.67" stop-color="#F9D876"/>
<stop offset="0.73" stop-color="#F0CB69"/>
<stop offset="0.85" stop-color="#DBA94A"/>
<stop offset="1" stop-color="#BA7418"/>
</linearGradient>
<linearGradient id="paint15_linear_38_292" x1="42.1814" y1="45.8433" x2="160.078" y2="220.882" gradientUnits="userSpaceOnUse">
<stop stop-color="#BA7418"/>
<stop offset="0.04" stop-color="#C28124"/>
<stop offset="0.25" stop-color="#F4D06F"/>
<stop offset="0.35" stop-color="#F9DD95"/>
<stop offset="0.44" stop-color="#FDE5AF"/>
<stop offset="0.48" stop-color="#FFE9B9"/>
<stop offset="0.53" stop-color="#FDE5AC"/>
<stop offset="0.62" stop-color="#FADD8A"/>
<stop offset="0.67" stop-color="#F9D876"/>
<stop offset="0.73" stop-color="#F0CB69"/>
<stop offset="0.85" stop-color="#DBA94A"/>
<stop offset="1" stop-color="#BA7418"/>
</linearGradient>
<linearGradient id="paint16_linear_38_292" x1="42.1814" y1="45.8433" x2="160.078" y2="220.882" gradientUnits="userSpaceOnUse">
<stop stop-color="#BA7418"/>
<stop offset="0.04" stop-color="#C28124"/>
<stop offset="0.25" stop-color="#F4D06F"/>
<stop offset="0.35" stop-color="#F9DD95"/>
<stop offset="0.44" stop-color="#FDE5AF"/>
<stop offset="0.48" stop-color="#FFE9B9"/>
<stop offset="0.53" stop-color="#FDE5AC"/>
<stop offset="0.62" stop-color="#FADD8A"/>
<stop offset="0.67" stop-color="#F9D876"/>
<stop offset="0.73" stop-color="#F0CB69"/>
<stop offset="0.85" stop-color="#DBA94A"/>
<stop offset="1" stop-color="#BA7418"/>
</linearGradient>
<linearGradient id="paint17_linear_38_292" x1="42.1814" y1="45.8433" x2="160.078" y2="220.882" gradientUnits="userSpaceOnUse">
<stop stop-color="#BA7418"/>
<stop offset="0.04" stop-color="#C28124"/>
<stop offset="0.25" stop-color="#F4D06F"/>
<stop offset="0.35" stop-color="#F9DD95"/>
<stop offset="0.44" stop-color="#FDE5AF"/>
<stop offset="0.48" stop-color="#FFE9B9"/>
<stop offset="0.53" stop-color="#FDE5AC"/>
<stop offset="0.62" stop-color="#FADD8A"/>
<stop offset="0.67" stop-color="#F9D876"/>
<stop offset="0.73" stop-color="#F0CB69"/>
<stop offset="0.85" stop-color="#DBA94A"/>
<stop offset="1" stop-color="#BA7418"/>
</linearGradient>
<linearGradient id="paint18_linear_38_292" x1="42.1814" y1="45.8433" x2="160.078" y2="220.882" gradientUnits="userSpaceOnUse">
<stop stop-color="#BA7418"/>
<stop offset="0.04" stop-color="#C28124"/>
<stop offset="0.25" stop-color="#F4D06F"/>
<stop offset="0.35" stop-color="#F9DD95"/>
<stop offset="0.44" stop-color="#FDE5AF"/>
<stop offset="0.48" stop-color="#FFE9B9"/>
<stop offset="0.53" stop-color="#FDE5AC"/>
<stop offset="0.62" stop-color="#FADD8A"/>
<stop offset="0.67" stop-color="#F9D876"/>
<stop offset="0.73" stop-color="#F0CB69"/>
<stop offset="0.85" stop-color="#DBA94A"/>
<stop offset="1" stop-color="#BA7418"/>
</linearGradient>
<linearGradient id="paint19_linear_38_292" x1="42.1814" y1="45.8433" x2="160.078" y2="220.882" gradientUnits="userSpaceOnUse">
<stop stop-color="#BA7418"/>
<stop offset="0.04" stop-color="#C28124"/>
<stop offset="0.25" stop-color="#F4D06F"/>
<stop offset="0.35" stop-color="#F9DD95"/>
<stop offset="0.44" stop-color="#FDE5AF"/>
<stop offset="0.48" stop-color="#FFE9B9"/>
<stop offset="0.53" stop-color="#FDE5AC"/>
<stop offset="0.62" stop-color="#FADD8A"/>
<stop offset="0.67" stop-color="#F9D876"/>
<stop offset="0.73" stop-color="#F0CB69"/>
<stop offset="0.85" stop-color="#DBA94A"/>
<stop offset="1" stop-color="#BA7418"/>
</linearGradient>
<linearGradient id="paint20_linear_38_292" x1="42.1814" y1="45.8433" x2="160.078" y2="220.882" gradientUnits="userSpaceOnUse">
<stop stop-color="#BA7418"/>
<stop offset="0.04" stop-color="#C28124"/>
<stop offset="0.25" stop-color="#F4D06F"/>
<stop offset="0.35" stop-color="#F9DD95"/>
<stop offset="0.44" stop-color="#FDE5AF"/>
<stop offset="0.48" stop-color="#FFE9B9"/>
<stop offset="0.53" stop-color="#FDE5AC"/>
<stop offset="0.62" stop-color="#FADD8A"/>
<stop offset="0.67" stop-color="#F9D876"/>
<stop offset="0.73" stop-color="#F0CB69"/>
<stop offset="0.85" stop-color="#DBA94A"/>
<stop offset="1" stop-color="#BA7418"/>
</linearGradient>
<linearGradient id="paint21_linear_38_292" x1="42.1814" y1="45.8433" x2="160.078" y2="220.882" gradientUnits="userSpaceOnUse">
<stop stop-color="#BA7418"/>
<stop offset="0.04" stop-color="#C28124"/>
<stop offset="0.25" stop-color="#F4D06F"/>
<stop offset="0.35" stop-color="#F9DD95"/>
<stop offset="0.44" stop-color="#FDE5AF"/>
<stop offset="0.48" stop-color="#FFE9B9"/>
<stop offset="0.53" stop-color="#FDE5AC"/>
<stop offset="0.62" stop-color="#FADD8A"/>
<stop offset="0.67" stop-color="#F9D876"/>
<stop offset="0.73" stop-color="#F0CB69"/>
<stop offset="0.85" stop-color="#DBA94A"/>
<stop offset="1" stop-color="#BA7418"/>
</linearGradient>
<linearGradient id="paint22_linear_38_292" x1="42.1814" y1="45.8433" x2="160.078" y2="220.882" gradientUnits="userSpaceOnUse">
<stop stop-color="#BA7418"/>
<stop offset="0.04" stop-color="#C28124"/>
<stop offset="0.25" stop-color="#F4D06F"/>
<stop offset="0.35" stop-color="#F9DD95"/>
<stop offset="0.44" stop-color="#FDE5AF"/>
<stop offset="0.48" stop-color="#FFE9B9"/>
<stop offset="0.53" stop-color="#FDE5AC"/>
<stop offset="0.62" stop-color="#FADD8A"/>
<stop offset="0.67" stop-color="#F9D876"/>
<stop offset="0.73" stop-color="#F0CB69"/>
<stop offset="0.85" stop-color="#DBA94A"/>
<stop offset="1" stop-color="#BA7418"/>
</linearGradient>
<linearGradient id="paint23_linear_38_292" x1="42.1814" y1="45.8433" x2="160.078" y2="220.882" gradientUnits="userSpaceOnUse">
<stop stop-color="#BA7418"/>
<stop offset="0.04" stop-color="#C28124"/>
<stop offset="0.25" stop-color="#F4D06F"/>
<stop offset="0.35" stop-color="#F9DD95"/>
<stop offset="0.44" stop-color="#FDE5AF"/>
<stop offset="0.48" stop-color="#FFE9B9"/>
<stop offset="0.53" stop-color="#FDE5AC"/>
<stop offset="0.62" stop-color="#FADD8A"/>
<stop offset="0.67" stop-color="#F9D876"/>
<stop offset="0.73" stop-color="#F0CB69"/>
<stop offset="0.85" stop-color="#DBA94A"/>
<stop offset="1" stop-color="#BA7418"/>
</linearGradient>
<linearGradient id="paint24_linear_38_292" x1="42.1814" y1="45.8433" x2="160.078" y2="220.882" gradientUnits="userSpaceOnUse">
<stop stop-color="#BA7418"/>
<stop offset="0.04" stop-color="#C28124"/>
<stop offset="0.25" stop-color="#F4D06F"/>
<stop offset="0.35" stop-color="#F9DD95"/>
<stop offset="0.44" stop-color="#FDE5AF"/>
<stop offset="0.48" stop-color="#FFE9B9"/>
<stop offset="0.53" stop-color="#FDE5AC"/>
<stop offset="0.62" stop-color="#FADD8A"/>
<stop offset="0.67" stop-color="#F9D876"/>
<stop offset="0.73" stop-color="#F0CB69"/>
<stop offset="0.85" stop-color="#DBA94A"/>
<stop offset="1" stop-color="#BA7418"/>
</linearGradient>
<linearGradient id="paint25_linear_38_292" x1="42.1814" y1="45.8433" x2="160.078" y2="220.882" gradientUnits="userSpaceOnUse">
<stop stop-color="#BA7418"/>
<stop offset="0.04" stop-color="#C28124"/>
<stop offset="0.25" stop-color="#F4D06F"/>
<stop offset="0.35" stop-color="#F9DD95"/>
<stop offset="0.44" stop-color="#FDE5AF"/>
<stop offset="0.48" stop-color="#FFE9B9"/>
<stop offset="0.53" stop-color="#FDE5AC"/>
<stop offset="0.62" stop-color="#FADD8A"/>
<stop offset="0.67" stop-color="#F9D876"/>
<stop offset="0.73" stop-color="#F0CB69"/>
<stop offset="0.85" stop-color="#DBA94A"/>
<stop offset="1" stop-color="#BA7418"/>
</linearGradient>
<linearGradient id="paint26_linear_38_292" x1="42.1814" y1="45.8433" x2="160.078" y2="220.882" gradientUnits="userSpaceOnUse">
<stop stop-color="#BA7418"/>
<stop offset="0.04" stop-color="#C28124"/>
<stop offset="0.25" stop-color="#F4D06F"/>
<stop offset="0.35" stop-color="#F9DD95"/>
<stop offset="0.44" stop-color="#FDE5AF"/>
<stop offset="0.48" stop-color="#FFE9B9"/>
<stop offset="0.53" stop-color="#FDE5AC"/>
<stop offset="0.62" stop-color="#FADD8A"/>
<stop offset="0.67" stop-color="#F9D876"/>
<stop offset="0.73" stop-color="#F0CB69"/>
<stop offset="0.85" stop-color="#DBA94A"/>
<stop offset="1" stop-color="#BA7418"/>
</linearGradient>
<linearGradient id="paint27_linear_38_292" x1="42.1814" y1="45.8433" x2="160.078" y2="220.882" gradientUnits="userSpaceOnUse">
<stop stop-color="#BA7418"/>
<stop offset="0.04" stop-color="#C28124"/>
<stop offset="0.25" stop-color="#F4D06F"/>
<stop offset="0.35" stop-color="#F9DD95"/>
<stop offset="0.44" stop-color="#FDE5AF"/>
<stop offset="0.48" stop-color="#FFE9B9"/>
<stop offset="0.53" stop-color="#FDE5AC"/>
<stop offset="0.62" stop-color="#FADD8A"/>
<stop offset="0.67" stop-color="#F9D876"/>
<stop offset="0.73" stop-color="#F0CB69"/>
<stop offset="0.85" stop-color="#DBA94A"/>
<stop offset="1" stop-color="#BA7418"/>
</linearGradient>
<linearGradient id="paint28_linear_38_292" x1="42.1814" y1="45.8433" x2="160.078" y2="220.882" gradientUnits="userSpaceOnUse">
<stop stop-color="#BA7418"/>
<stop offset="0.04" stop-color="#C28124"/>
<stop offset="0.25" stop-color="#F4D06F"/>
<stop offset="0.35" stop-color="#F9DD95"/>
<stop offset="0.44" stop-color="#FDE5AF"/>
<stop offset="0.48" stop-color="#FFE9B9"/>
<stop offset="0.53" stop-color="#FDE5AC"/>
<stop offset="0.62" stop-color="#FADD8A"/>
<stop offset="0.67" stop-color="#F9D876"/>
<stop offset="0.73" stop-color="#F0CB69"/>
<stop offset="0.85" stop-color="#DBA94A"/>
<stop offset="1" stop-color="#BA7418"/>
</linearGradient>
<linearGradient id="paint29_linear_38_292" x1="42.1814" y1="45.8433" x2="160.078" y2="220.882" gradientUnits="userSpaceOnUse">
<stop stop-color="#BA7418"/>
<stop offset="0.04" stop-color="#C28124"/>
<stop offset="0.25" stop-color="#F4D06F"/>
<stop offset="0.35" stop-color="#F9DD95"/>
<stop offset="0.44" stop-color="#FDE5AF"/>
<stop offset="0.48" stop-color="#FFE9B9"/>
<stop offset="0.53" stop-color="#FDE5AC"/>
<stop offset="0.62" stop-color="#FADD8A"/>
<stop offset="0.67" stop-color="#F9D876"/>
<stop offset="0.73" stop-color="#F0CB69"/>
<stop offset="0.85" stop-color="#DBA94A"/>
<stop offset="1" stop-color="#BA7418"/>
</linearGradient>
<linearGradient id="paint30_linear_38_292" x1="42.1814" y1="45.8433" x2="160.078" y2="220.882" gradientUnits="userSpaceOnUse">
<stop stop-color="#BA7418"/>
<stop offset="0.04" stop-color="#C28124"/>
<stop offset="0.25" stop-color="#F4D06F"/>
<stop offset="0.35" stop-color="#F9DD95"/>
<stop offset="0.44" stop-color="#FDE5AF"/>
<stop offset="0.48" stop-color="#FFE9B9"/>
<stop offset="0.53" stop-color="#FDE5AC"/>
<stop offset="0.62" stop-color="#FADD8A"/>
<stop offset="0.67" stop-color="#F9D876"/>
<stop offset="0.73" stop-color="#F0CB69"/>
<stop offset="0.85" stop-color="#DBA94A"/>
<stop offset="1" stop-color="#BA7418"/>
</linearGradient>
<linearGradient id="paint31_linear_38_292" x1="42.1814" y1="45.8433" x2="160.078" y2="220.882" gradientUnits="userSpaceOnUse">
<stop stop-color="#BA7418"/>
<stop offset="0.04" stop-color="#C28124"/>
<stop offset="0.25" stop-color="#F4D06F"/>
<stop offset="0.35" stop-color="#F9DD95"/>
<stop offset="0.44" stop-color="#FDE5AF"/>
<stop offset="0.48" stop-color="#FFE9B9"/>
<stop offset="0.53" stop-color="#FDE5AC"/>
<stop offset="0.62" stop-color="#FADD8A"/>
<stop offset="0.67" stop-color="#F9D876"/>
<stop offset="0.73" stop-color="#F0CB69"/>
<stop offset="0.85" stop-color="#DBA94A"/>
<stop offset="1" stop-color="#BA7418"/>
</linearGradient>
<linearGradient id="paint32_linear_38_292" x1="42.1814" y1="45.8433" x2="160.078" y2="220.882" gradientUnits="userSpaceOnUse">
<stop stop-color="#BA7418"/>
<stop offset="0.04" stop-color="#C28124"/>
<stop offset="0.25" stop-color="#F4D06F"/>
<stop offset="0.35" stop-color="#F9DD95"/>
<stop offset="0.44" stop-color="#FDE5AF"/>
<stop offset="0.48" stop-color="#FFE9B9"/>
<stop offset="0.53" stop-color="#FDE5AC"/>
<stop offset="0.62" stop-color="#FADD8A"/>
<stop offset="0.67" stop-color="#F9D876"/>
<stop offset="0.73" stop-color="#F0CB69"/>
<stop offset="0.85" stop-color="#DBA94A"/>
<stop offset="1" stop-color="#BA7418"/>
</linearGradient>
<linearGradient id="paint33_linear_38_292" x1="42.1814" y1="45.8433" x2="160.078" y2="220.882" gradientUnits="userSpaceOnUse">
<stop stop-color="#BA7418"/>
<stop offset="0.04" stop-color="#C28124"/>
<stop offset="0.25" stop-color="#F4D06F"/>
<stop offset="0.35" stop-color="#F9DD95"/>
<stop offset="0.44" stop-color="#FDE5AF"/>
<stop offset="0.48" stop-color="#FFE9B9"/>
<stop offset="0.53" stop-color="#FDE5AC"/>
<stop offset="0.62" stop-color="#FADD8A"/>
<stop offset="0.67" stop-color="#F9D876"/>
<stop offset="0.73" stop-color="#F0CB69"/>
<stop offset="0.85" stop-color="#DBA94A"/>
<stop offset="1" stop-color="#BA7418"/>
</linearGradient>
<linearGradient id="paint34_linear_38_292" x1="42.1814" y1="45.8433" x2="160.078" y2="220.882" gradientUnits="userSpaceOnUse">
<stop stop-color="#BA7418"/>
<stop offset="0.04" stop-color="#C28124"/>
<stop offset="0.25" stop-color="#F4D06F"/>
<stop offset="0.35" stop-color="#F9DD95"/>
<stop offset="0.44" stop-color="#FDE5AF"/>
<stop offset="0.48" stop-color="#FFE9B9"/>
<stop offset="0.53" stop-color="#FDE5AC"/>
<stop offset="0.62" stop-color="#FADD8A"/>
<stop offset="0.67" stop-color="#F9D876"/>
<stop offset="0.73" stop-color="#F0CB69"/>
<stop offset="0.85" stop-color="#DBA94A"/>
<stop offset="1" stop-color="#BA7418"/>
</linearGradient>
<linearGradient id="paint35_linear_38_292" x1="42.1814" y1="45.8433" x2="160.078" y2="220.882" gradientUnits="userSpaceOnUse">
<stop stop-color="#BA7418"/>
<stop offset="0.04" stop-color="#C28124"/>
<stop offset="0.25" stop-color="#F4D06F"/>
<stop offset="0.35" stop-color="#F9DD95"/>
<stop offset="0.44" stop-color="#FDE5AF"/>
<stop offset="0.48" stop-color="#FFE9B9"/>
<stop offset="0.53" stop-color="#FDE5AC"/>
<stop offset="0.62" stop-color="#FADD8A"/>
<stop offset="0.67" stop-color="#F9D876"/>
<stop offset="0.73" stop-color="#F0CB69"/>
<stop offset="0.85" stop-color="#DBA94A"/>
<stop offset="1" stop-color="#BA7418"/>
</linearGradient>
<linearGradient id="paint36_linear_38_292" x1="42.1814" y1="45.8433" x2="160.078" y2="220.882" gradientUnits="userSpaceOnUse">
<stop stop-color="#BA7418"/>
<stop offset="0.04" stop-color="#C28124"/>
<stop offset="0.25" stop-color="#F4D06F"/>
<stop offset="0.35" stop-color="#F9DD95"/>
<stop offset="0.44" stop-color="#FDE5AF"/>
<stop offset="0.48" stop-color="#FFE9B9"/>
<stop offset="0.53" stop-color="#FDE5AC"/>
<stop offset="0.62" stop-color="#FADD8A"/>
<stop offset="0.67" stop-color="#F9D876"/>
<stop offset="0.73" stop-color="#F0CB69"/>
<stop offset="0.85" stop-color="#DBA94A"/>
<stop offset="1" stop-color="#BA7418"/>
</linearGradient>
<linearGradient id="paint37_linear_38_292" x1="42.1814" y1="45.8433" x2="160.078" y2="220.882" gradientUnits="userSpaceOnUse">
<stop stop-color="#BA7418"/>
<stop offset="0.04" stop-color="#C28124"/>
<stop offset="0.25" stop-color="#F4D06F"/>
<stop offset="0.35" stop-color="#F9DD95"/>
<stop offset="0.44" stop-color="#FDE5AF"/>
<stop offset="0.48" stop-color="#FFE9B9"/>
<stop offset="0.53" stop-color="#FDE5AC"/>
<stop offset="0.62" stop-color="#FADD8A"/>
<stop offset="0.67" stop-color="#F9D876"/>
<stop offset="0.73" stop-color="#F0CB69"/>
<stop offset="0.85" stop-color="#DBA94A"/>
<stop offset="1" stop-color="#BA7418"/>
</linearGradient>
<linearGradient id="paint38_linear_38_292" x1="42.1814" y1="45.8433" x2="160.078" y2="220.882" gradientUnits="userSpaceOnUse">
<stop stop-color="#BA7418"/>
<stop offset="0.04" stop-color="#C28124"/>
<stop offset="0.25" stop-color="#F4D06F"/>
<stop offset="0.35" stop-color="#F9DD95"/>
<stop offset="0.44" stop-color="#FDE5AF"/>
<stop offset="0.48" stop-color="#FFE9B9"/>
<stop offset="0.53" stop-color="#FDE5AC"/>
<stop offset="0.62" stop-color="#FADD8A"/>
<stop offset="0.67" stop-color="#F9D876"/>
<stop offset="0.73" stop-color="#F0CB69"/>
<stop offset="0.85" stop-color="#DBA94A"/>
<stop offset="1" stop-color="#BA7418"/>
</linearGradient>
<linearGradient id="paint39_linear_38_292" x1="42.1814" y1="45.8433" x2="160.078" y2="220.882" gradientUnits="userSpaceOnUse">
<stop stop-color="#BA7418"/>
<stop offset="0.04" stop-color="#C28124"/>
<stop offset="0.25" stop-color="#F4D06F"/>
<stop offset="0.35" stop-color="#F9DD95"/>
<stop offset="0.44" stop-color="#FDE5AF"/>
<stop offset="0.48" stop-color="#FFE9B9"/>
<stop offset="0.53" stop-color="#FDE5AC"/>
<stop offset="0.62" stop-color="#FADD8A"/>
<stop offset="0.67" stop-color="#F9D876"/>
<stop offset="0.73" stop-color="#F0CB69"/>
<stop offset="0.85" stop-color="#DBA94A"/>
<stop offset="1" stop-color="#BA7418"/>
</linearGradient>
<linearGradient id="paint40_linear_38_292" x1="42.1814" y1="45.8433" x2="160.078" y2="220.882" gradientUnits="userSpaceOnUse">
<stop stop-color="#BA7418"/>
<stop offset="0.04" stop-color="#C28124"/>
<stop offset="0.25" stop-color="#F4D06F"/>
<stop offset="0.35" stop-color="#F9DD95"/>
<stop offset="0.44" stop-color="#FDE5AF"/>
<stop offset="0.48" stop-color="#FFE9B9"/>
<stop offset="0.53" stop-color="#FDE5AC"/>
<stop offset="0.62" stop-color="#FADD8A"/>
<stop offset="0.67" stop-color="#F9D876"/>
<stop offset="0.73" stop-color="#F0CB69"/>
<stop offset="0.85" stop-color="#DBA94A"/>
<stop offset="1" stop-color="#BA7418"/>
</linearGradient>
<linearGradient id="paint41_linear_38_292" x1="42.1814" y1="45.8433" x2="160.078" y2="220.882" gradientUnits="userSpaceOnUse">
<stop stop-color="#BA7418"/>
<stop offset="0.04" stop-color="#C28124"/>
<stop offset="0.25" stop-color="#F4D06F"/>
<stop offset="0.35" stop-color="#F9DD95"/>
<stop offset="0.44" stop-color="#FDE5AF"/>
<stop offset="0.48" stop-color="#FFE9B9"/>
<stop offset="0.53" stop-color="#FDE5AC"/>
<stop offset="0.62" stop-color="#FADD8A"/>
<stop offset="0.67" stop-color="#F9D876"/>
<stop offset="0.73" stop-color="#F0CB69"/>
<stop offset="0.85" stop-color="#DBA94A"/>
<stop offset="1" stop-color="#BA7418"/>
</linearGradient>
<linearGradient id="paint42_linear_38_292" x1="42.1814" y1="45.8433" x2="160.078" y2="220.882" gradientUnits="userSpaceOnUse">
<stop stop-color="#BA7418"/>
<stop offset="0.04" stop-color="#C28124"/>
<stop offset="0.25" stop-color="#F4D06F"/>
<stop offset="0.35" stop-color="#F9DD95"/>
<stop offset="0.44" stop-color="#FDE5AF"/>
<stop offset="0.48" stop-color="#FFE9B9"/>
<stop offset="0.53" stop-color="#FDE5AC"/>
<stop offset="0.62" stop-color="#FADD8A"/>
<stop offset="0.67" stop-color="#F9D876"/>
<stop offset="0.73" stop-color="#F0CB69"/>
<stop offset="0.85" stop-color="#DBA94A"/>
<stop offset="1" stop-color="#BA7418"/>
</linearGradient>
<linearGradient id="paint43_linear_38_292" x1="42.1814" y1="45.8433" x2="160.078" y2="220.882" gradientUnits="userSpaceOnUse">
<stop stop-color="#BA7418"/>
<stop offset="0.04" stop-color="#C28124"/>
<stop offset="0.25" stop-color="#F4D06F"/>
<stop offset="0.35" stop-color="#F9DD95"/>
<stop offset="0.44" stop-color="#FDE5AF"/>
<stop offset="0.48" stop-color="#FFE9B9"/>
<stop offset="0.53" stop-color="#FDE5AC"/>
<stop offset="0.62" stop-color="#FADD8A"/>
<stop offset="0.67" stop-color="#F9D876"/>
<stop offset="0.73" stop-color="#F0CB69"/>
<stop offset="0.85" stop-color="#DBA94A"/>
<stop offset="1" stop-color="#BA7418"/>
</linearGradient>
<linearGradient id="paint44_linear_38_292" x1="42.1814" y1="45.8433" x2="160.078" y2="220.882" gradientUnits="userSpaceOnUse">
<stop stop-color="#BA7418"/>
<stop offset="0.04" stop-color="#C28124"/>
<stop offset="0.25" stop-color="#F4D06F"/>
<stop offset="0.35" stop-color="#F9DD95"/>
<stop offset="0.44" stop-color="#FDE5AF"/>
<stop offset="0.48" stop-color="#FFE9B9"/>
<stop offset="0.53" stop-color="#FDE5AC"/>
<stop offset="0.62" stop-color="#FADD8A"/>
<stop offset="0.67" stop-color="#F9D876"/>
<stop offset="0.73" stop-color="#F0CB69"/>
<stop offset="0.85" stop-color="#DBA94A"/>
<stop offset="1" stop-color="#BA7418"/>
</linearGradient>
<linearGradient id="paint45_linear_38_292" x1="42.1814" y1="45.8433" x2="160.078" y2="220.882" gradientUnits="userSpaceOnUse">
<stop stop-color="#BA7418"/>
<stop offset="0.04" stop-color="#C28124"/>
<stop offset="0.25" stop-color="#F4D06F"/>
<stop offset="0.35" stop-color="#F9DD95"/>
<stop offset="0.44" stop-color="#FDE5AF"/>
<stop offset="0.48" stop-color="#FFE9B9"/>
<stop offset="0.53" stop-color="#FDE5AC"/>
<stop offset="0.62" stop-color="#FADD8A"/>
<stop offset="0.67" stop-color="#F9D876"/>
<stop offset="0.73" stop-color="#F0CB69"/>
<stop offset="0.85" stop-color="#DBA94A"/>
<stop offset="1" stop-color="#BA7418"/>
</linearGradient>
<linearGradient id="paint46_linear_38_292" x1="42.1814" y1="45.8433" x2="160.078" y2="220.882" gradientUnits="userSpaceOnUse">
<stop stop-color="#BA7418"/>
<stop offset="0.04" stop-color="#C28124"/>
<stop offset="0.25" stop-color="#F4D06F"/>
<stop offset="0.35" stop-color="#F9DD95"/>
<stop offset="0.44" stop-color="#FDE5AF"/>
<stop offset="0.48" stop-color="#FFE9B9"/>
<stop offset="0.53" stop-color="#FDE5AC"/>
<stop offset="0.62" stop-color="#FADD8A"/>
<stop offset="0.67" stop-color="#F9D876"/>
<stop offset="0.73" stop-color="#F0CB69"/>
<stop offset="0.85" stop-color="#DBA94A"/>
<stop offset="1" stop-color="#BA7418"/>
</linearGradient>
<linearGradient id="paint47_linear_38_292" x1="42.1814" y1="45.8433" x2="160.078" y2="220.882" gradientUnits="userSpaceOnUse">
<stop stop-color="#BA7418"/>
<stop offset="0.04" stop-color="#C28124"/>
<stop offset="0.25" stop-color="#F4D06F"/>
<stop offset="0.35" stop-color="#F9DD95"/>
<stop offset="0.44" stop-color="#FDE5AF"/>
<stop offset="0.48" stop-color="#FFE9B9"/>
<stop offset="0.53" stop-color="#FDE5AC"/>
<stop offset="0.62" stop-color="#FADD8A"/>
<stop offset="0.67" stop-color="#F9D876"/>
<stop offset="0.73" stop-color="#F0CB69"/>
<stop offset="0.85" stop-color="#DBA94A"/>
<stop offset="1" stop-color="#BA7418"/>
</linearGradient>
<linearGradient id="paint48_linear_38_292" x1="42.1814" y1="45.8433" x2="160.078" y2="220.882" gradientUnits="userSpaceOnUse">
<stop stop-color="#BA7418"/>
<stop offset="0.04" stop-color="#C28124"/>
<stop offset="0.25" stop-color="#F4D06F"/>
<stop offset="0.35" stop-color="#F9DD95"/>
<stop offset="0.44" stop-color="#FDE5AF"/>
<stop offset="0.48" stop-color="#FFE9B9"/>
<stop offset="0.53" stop-color="#FDE5AC"/>
<stop offset="0.62" stop-color="#FADD8A"/>
<stop offset="0.67" stop-color="#F9D876"/>
<stop offset="0.73" stop-color="#F0CB69"/>
<stop offset="0.85" stop-color="#DBA94A"/>
<stop offset="1" stop-color="#BA7418"/>
</linearGradient>
<linearGradient id="paint49_linear_38_292" x1="42.1814" y1="45.8433" x2="160.078" y2="220.882" gradientUnits="userSpaceOnUse">
<stop stop-color="#BA7418"/>
<stop offset="0.04" stop-color="#C28124"/>
<stop offset="0.25" stop-color="#F4D06F"/>
<stop offset="0.35" stop-color="#F9DD95"/>
<stop offset="0.44" stop-color="#FDE5AF"/>
<stop offset="0.48" stop-color="#FFE9B9"/>
<stop offset="0.53" stop-color="#FDE5AC"/>
<stop offset="0.62" stop-color="#FADD8A"/>
<stop offset="0.67" stop-color="#F9D876"/>
<stop offset="0.73" stop-color="#F0CB69"/>
<stop offset="0.85" stop-color="#DBA94A"/>
<stop offset="1" stop-color="#BA7418"/>
</linearGradient>
<linearGradient id="paint50_linear_38_292" x1="42.1814" y1="45.8433" x2="160.078" y2="220.882" gradientUnits="userSpaceOnUse">
<stop stop-color="#BA7418"/>
<stop offset="0.04" stop-color="#C28124"/>
<stop offset="0.25" stop-color="#F4D06F"/>
<stop offset="0.35" stop-color="#F9DD95"/>
<stop offset="0.44" stop-color="#FDE5AF"/>
<stop offset="0.48" stop-color="#FFE9B9"/>
<stop offset="0.53" stop-color="#FDE5AC"/>
<stop offset="0.62" stop-color="#FADD8A"/>
<stop offset="0.67" stop-color="#F9D876"/>
<stop offset="0.73" stop-color="#F0CB69"/>
<stop offset="0.85" stop-color="#DBA94A"/>
<stop offset="1" stop-color="#BA7418"/>
</linearGradient>
<linearGradient id="paint51_linear_38_292" x1="42.1814" y1="45.8433" x2="160.078" y2="220.882" gradientUnits="userSpaceOnUse">
<stop stop-color="#BA7418"/>
<stop offset="0.04" stop-color="#C28124"/>
<stop offset="0.25" stop-color="#F4D06F"/>
<stop offset="0.35" stop-color="#F9DD95"/>
<stop offset="0.44" stop-color="#FDE5AF"/>
<stop offset="0.48" stop-color="#FFE9B9"/>
<stop offset="0.53" stop-color="#FDE5AC"/>
<stop offset="0.62" stop-color="#FADD8A"/>
<stop offset="0.67" stop-color="#F9D876"/>
<stop offset="0.73" stop-color="#F0CB69"/>
<stop offset="0.85" stop-color="#DBA94A"/>
<stop offset="1" stop-color="#BA7418"/>
</linearGradient>
<linearGradient id="paint52_linear_38_292" x1="42.1814" y1="45.8433" x2="160.078" y2="220.882" gradientUnits="userSpaceOnUse">
<stop stop-color="#BA7418"/>
<stop offset="0.04" stop-color="#C28124"/>
<stop offset="0.25" stop-color="#F4D06F"/>
<stop offset="0.35" stop-color="#F9DD95"/>
<stop offset="0.44" stop-color="#FDE5AF"/>
<stop offset="0.48" stop-color="#FFE9B9"/>
<stop offset="0.53" stop-color="#FDE5AC"/>
<stop offset="0.62" stop-color="#FADD8A"/>
<stop offset="0.67" stop-color="#F9D876"/>
<stop offset="0.73" stop-color="#F0CB69"/>
<stop offset="0.85" stop-color="#DBA94A"/>
<stop offset="1" stop-color="#BA7418"/>
</linearGradient>
<linearGradient id="paint53_linear_38_292" x1="42.1814" y1="45.8433" x2="160.078" y2="220.882" gradientUnits="userSpaceOnUse">
<stop stop-color="#BA7418"/>
<stop offset="0.04" stop-color="#C28124"/>
<stop offset="0.25" stop-color="#F4D06F"/>
<stop offset="0.35" stop-color="#F9DD95"/>
<stop offset="0.44" stop-color="#FDE5AF"/>
<stop offset="0.48" stop-color="#FFE9B9"/>
<stop offset="0.53" stop-color="#FDE5AC"/>
<stop offset="0.62" stop-color="#FADD8A"/>
<stop offset="0.67" stop-color="#F9D876"/>
<stop offset="0.73" stop-color="#F0CB69"/>
<stop offset="0.85" stop-color="#DBA94A"/>
<stop offset="1" stop-color="#BA7418"/>
</linearGradient>
<linearGradient id="paint54_linear_38_292" x1="42.1814" y1="45.8433" x2="160.078" y2="220.882" gradientUnits="userSpaceOnUse">
<stop stop-color="#BA7418"/>
<stop offset="0.04" stop-color="#C28124"/>
<stop offset="0.25" stop-color="#F4D06F"/>
<stop offset="0.35" stop-color="#F9DD95"/>
<stop offset="0.44" stop-color="#FDE5AF"/>
<stop offset="0.48" stop-color="#FFE9B9"/>
<stop offset="0.53" stop-color="#FDE5AC"/>
<stop offset="0.62" stop-color="#FADD8A"/>
<stop offset="0.67" stop-color="#F9D876"/>
<stop offset="0.73" stop-color="#F0CB69"/>
<stop offset="0.85" stop-color="#DBA94A"/>
<stop offset="1" stop-color="#BA7418"/>
</linearGradient>
<linearGradient id="paint55_linear_38_292" x1="42.1814" y1="45.8433" x2="160.078" y2="220.882" gradientUnits="userSpaceOnUse">
<stop stop-color="#BA7418"/>
<stop offset="0.04" stop-color="#C28124"/>
<stop offset="0.25" stop-color="#F4D06F"/>
<stop offset="0.35" stop-color="#F9DD95"/>
<stop offset="0.44" stop-color="#FDE5AF"/>
<stop offset="0.48" stop-color="#FFE9B9"/>
<stop offset="0.53" stop-color="#FDE5AC"/>
<stop offset="0.62" stop-color="#FADD8A"/>
<stop offset="0.67" stop-color="#F9D876"/>
<stop offset="0.73" stop-color="#F0CB69"/>
<stop offset="0.85" stop-color="#DBA94A"/>
<stop offset="1" stop-color="#BA7418"/>
</linearGradient>
<linearGradient id="paint56_linear_38_292" x1="42.1814" y1="45.8433" x2="160.078" y2="220.882" gradientUnits="userSpaceOnUse">
<stop stop-color="#BA7418"/>
<stop offset="0.04" stop-color="#C28124"/>
<stop offset="0.25" stop-color="#F4D06F"/>
<stop offset="0.35" stop-color="#F9DD95"/>
<stop offset="0.44" stop-color="#FDE5AF"/>
<stop offset="0.48" stop-color="#FFE9B9"/>
<stop offset="0.53" stop-color="#FDE5AC"/>
<stop offset="0.62" stop-color="#FADD8A"/>
<stop offset="0.67" stop-color="#F9D876"/>
<stop offset="0.73" stop-color="#F0CB69"/>
<stop offset="0.85" stop-color="#DBA94A"/>
<stop offset="1" stop-color="#BA7418"/>
</linearGradient>
<linearGradient id="paint57_linear_38_292" x1="42.1814" y1="45.8433" x2="160.078" y2="220.882" gradientUnits="userSpaceOnUse">
<stop stop-color="#BA7418"/>
<stop offset="0.04" stop-color="#C28124"/>
<stop offset="0.25" stop-color="#F4D06F"/>
<stop offset="0.35" stop-color="#F9DD95"/>
<stop offset="0.44" stop-color="#FDE5AF"/>
<stop offset="0.48" stop-color="#FFE9B9"/>
<stop offset="0.53" stop-color="#FDE5AC"/>
<stop offset="0.62" stop-color="#FADD8A"/>
<stop offset="0.67" stop-color="#F9D876"/>
<stop offset="0.73" stop-color="#F0CB69"/>
<stop offset="0.85" stop-color="#DBA94A"/>
<stop offset="1" stop-color="#BA7418"/>
</linearGradient>
<linearGradient id="paint58_linear_38_292" x1="42.1814" y1="45.8433" x2="160.078" y2="220.882" gradientUnits="userSpaceOnUse">
<stop stop-color="#BA7418"/>
<stop offset="0.04" stop-color="#C28124"/>
<stop offset="0.25" stop-color="#F4D06F"/>
<stop offset="0.35" stop-color="#F9DD95"/>
<stop offset="0.44" stop-color="#FDE5AF"/>
<stop offset="0.48" stop-color="#FFE9B9"/>
<stop offset="0.53" stop-color="#FDE5AC"/>
<stop offset="0.62" stop-color="#FADD8A"/>
<stop offset="0.67" stop-color="#F9D876"/>
<stop offset="0.73" stop-color="#F0CB69"/>
<stop offset="0.85" stop-color="#DBA94A"/>
<stop offset="1" stop-color="#BA7418"/>
</linearGradient>
<linearGradient id="paint59_linear_38_292" x1="42.1814" y1="45.8433" x2="160.078" y2="220.882" gradientUnits="userSpaceOnUse">
<stop stop-color="#BA7418"/>
<stop offset="0.04" stop-color="#C28124"/>
<stop offset="0.25" stop-color="#F4D06F"/>
<stop offset="0.35" stop-color="#F9DD95"/>
<stop offset="0.44" stop-color="#FDE5AF"/>
<stop offset="0.48" stop-color="#FFE9B9"/>
<stop offset="0.53" stop-color="#FDE5AC"/>
<stop offset="0.62" stop-color="#FADD8A"/>
<stop offset="0.67" stop-color="#F9D876"/>
<stop offset="0.73" stop-color="#F0CB69"/>
<stop offset="0.85" stop-color="#DBA94A"/>
<stop offset="1" stop-color="#BA7418"/>
</linearGradient>
<linearGradient id="paint60_linear_38_292" x1="42.1814" y1="45.8433" x2="160.078" y2="220.882" gradientUnits="userSpaceOnUse">
<stop stop-color="#BA7418"/>
<stop offset="0.04" stop-color="#C28124"/>
<stop offset="0.25" stop-color="#F4D06F"/>
<stop offset="0.35" stop-color="#F9DD95"/>
<stop offset="0.44" stop-color="#FDE5AF"/>
<stop offset="0.48" stop-color="#FFE9B9"/>
<stop offset="0.53" stop-color="#FDE5AC"/>
<stop offset="0.62" stop-color="#FADD8A"/>
<stop offset="0.67" stop-color="#F9D876"/>
<stop offset="0.73" stop-color="#F0CB69"/>
<stop offset="0.85" stop-color="#DBA94A"/>
<stop offset="1" stop-color="#BA7418"/>
</linearGradient>
<linearGradient id="paint61_linear_38_292" x1="42.1814" y1="45.8433" x2="160.078" y2="220.882" gradientUnits="userSpaceOnUse">
<stop stop-color="#BA7418"/>
<stop offset="0.04" stop-color="#C28124"/>
<stop offset="0.25" stop-color="#F4D06F"/>
<stop offset="0.35" stop-color="#F9DD95"/>
<stop offset="0.44" stop-color="#FDE5AF"/>
<stop offset="0.48" stop-color="#FFE9B9"/>
<stop offset="0.53" stop-color="#FDE5AC"/>
<stop offset="0.62" stop-color="#FADD8A"/>
<stop offset="0.67" stop-color="#F9D876"/>
<stop offset="0.73" stop-color="#F0CB69"/>
<stop offset="0.85" stop-color="#DBA94A"/>
<stop offset="1" stop-color="#BA7418"/>
</linearGradient>
<linearGradient id="paint62_linear_38_292" x1="42.1814" y1="45.8433" x2="160.078" y2="220.882" gradientUnits="userSpaceOnUse">
<stop stop-color="#BA7418"/>
<stop offset="0.04" stop-color="#C28124"/>
<stop offset="0.25" stop-color="#F4D06F"/>
<stop offset="0.35" stop-color="#F9DD95"/>
<stop offset="0.44" stop-color="#FDE5AF"/>
<stop offset="0.48" stop-color="#FFE9B9"/>
<stop offset="0.53" stop-color="#FDE5AC"/>
<stop offset="0.62" stop-color="#FADD8A"/>
<stop offset="0.67" stop-color="#F9D876"/>
<stop offset="0.73" stop-color="#F0CB69"/>
<stop offset="0.85" stop-color="#DBA94A"/>
<stop offset="1" stop-color="#BA7418"/>
</linearGradient>
<linearGradient id="paint63_linear_38_292" x1="42.1814" y1="45.8433" x2="160.078" y2="220.882" gradientUnits="userSpaceOnUse">
<stop stop-color="#BA7418"/>
<stop offset="0.04" stop-color="#C28124"/>
<stop offset="0.25" stop-color="#F4D06F"/>
<stop offset="0.35" stop-color="#F9DD95"/>
<stop offset="0.44" stop-color="#FDE5AF"/>
<stop offset="0.48" stop-color="#FFE9B9"/>
<stop offset="0.53" stop-color="#FDE5AC"/>
<stop offset="0.62" stop-color="#FADD8A"/>
<stop offset="0.67" stop-color="#F9D876"/>
<stop offset="0.73" stop-color="#F0CB69"/>
<stop offset="0.85" stop-color="#DBA94A"/>
<stop offset="1" stop-color="#BA7418"/>
</linearGradient>
<linearGradient id="paint64_linear_38_292" x1="42.1814" y1="45.8433" x2="160.078" y2="220.882" gradientUnits="userSpaceOnUse">
<stop stop-color="#BA7418"/>
<stop offset="0.04" stop-color="#C28124"/>
<stop offset="0.25" stop-color="#F4D06F"/>
<stop offset="0.35" stop-color="#F9DD95"/>
<stop offset="0.44" stop-color="#FDE5AF"/>
<stop offset="0.48" stop-color="#FFE9B9"/>
<stop offset="0.53" stop-color="#FDE5AC"/>
<stop offset="0.62" stop-color="#FADD8A"/>
<stop offset="0.67" stop-color="#F9D876"/>
<stop offset="0.73" stop-color="#F0CB69"/>
<stop offset="0.85" stop-color="#DBA94A"/>
<stop offset="1" stop-color="#BA7418"/>
</linearGradient>
<linearGradient id="paint65_linear_38_292" x1="42.1814" y1="45.8433" x2="160.078" y2="220.882" gradientUnits="userSpaceOnUse">
<stop stop-color="#BA7418"/>
<stop offset="0.04" stop-color="#C28124"/>
<stop offset="0.25" stop-color="#F4D06F"/>
<stop offset="0.35" stop-color="#F9DD95"/>
<stop offset="0.44" stop-color="#FDE5AF"/>
<stop offset="0.48" stop-color="#FFE9B9"/>
<stop offset="0.53" stop-color="#FDE5AC"/>
<stop offset="0.62" stop-color="#FADD8A"/>
<stop offset="0.67" stop-color="#F9D876"/>
<stop offset="0.73" stop-color="#F0CB69"/>
<stop offset="0.85" stop-color="#DBA94A"/>
<stop offset="1" stop-color="#BA7418"/>
</linearGradient>
<linearGradient id="paint66_linear_38_292" x1="42.1814" y1="45.8433" x2="160.078" y2="220.882" gradientUnits="userSpaceOnUse">
<stop stop-color="#BA7418"/>
<stop offset="0.04" stop-color="#C28124"/>
<stop offset="0.25" stop-color="#F4D06F"/>
<stop offset="0.35" stop-color="#F9DD95"/>
<stop offset="0.44" stop-color="#FDE5AF"/>
<stop offset="0.48" stop-color="#FFE9B9"/>
<stop offset="0.53" stop-color="#FDE5AC"/>
<stop offset="0.62" stop-color="#FADD8A"/>
<stop offset="0.67" stop-color="#F9D876"/>
<stop offset="0.73" stop-color="#F0CB69"/>
<stop offset="0.85" stop-color="#DBA94A"/>
<stop offset="1" stop-color="#BA7418"/>
</linearGradient>
<linearGradient id="paint67_linear_38_292" x1="42.1814" y1="45.8433" x2="160.078" y2="220.882" gradientUnits="userSpaceOnUse">
<stop stop-color="#BA7418"/>
<stop offset="0.04" stop-color="#C28124"/>
<stop offset="0.25" stop-color="#F4D06F"/>
<stop offset="0.35" stop-color="#F9DD95"/>
<stop offset="0.44" stop-color="#FDE5AF"/>
<stop offset="0.48" stop-color="#FFE9B9"/>
<stop offset="0.53" stop-color="#FDE5AC"/>
<stop offset="0.62" stop-color="#FADD8A"/>
<stop offset="0.67" stop-color="#F9D876"/>
<stop offset="0.73" stop-color="#F0CB69"/>
<stop offset="0.85" stop-color="#DBA94A"/>
<stop offset="1" stop-color="#BA7418"/>
</linearGradient>
<linearGradient id="paint68_linear_38_292" x1="42.1814" y1="45.8433" x2="160.078" y2="220.882" gradientUnits="userSpaceOnUse">
<stop stop-color="#BA7418"/>
<stop offset="0.04" stop-color="#C28124"/>
<stop offset="0.25" stop-color="#F4D06F"/>
<stop offset="0.35" stop-color="#F9DD95"/>
<stop offset="0.44" stop-color="#FDE5AF"/>
<stop offset="0.48" stop-color="#FFE9B9"/>
<stop offset="0.53" stop-color="#FDE5AC"/>
<stop offset="0.62" stop-color="#FADD8A"/>
<stop offset="0.67" stop-color="#F9D876"/>
<stop offset="0.73" stop-color="#F0CB69"/>
<stop offset="0.85" stop-color="#DBA94A"/>
<stop offset="1" stop-color="#BA7418"/>
</linearGradient>
<linearGradient id="paint69_linear_38_292" x1="42.1814" y1="45.8433" x2="160.078" y2="220.882" gradientUnits="userSpaceOnUse">
<stop stop-color="#BA7418"/>
<stop offset="0.04" stop-color="#C28124"/>
<stop offset="0.25" stop-color="#F4D06F"/>
<stop offset="0.35" stop-color="#F9DD95"/>
<stop offset="0.44" stop-color="#FDE5AF"/>
<stop offset="0.48" stop-color="#FFE9B9"/>
<stop offset="0.53" stop-color="#FDE5AC"/>
<stop offset="0.62" stop-color="#FADD8A"/>
<stop offset="0.67" stop-color="#F9D876"/>
<stop offset="0.73" stop-color="#F0CB69"/>
<stop offset="0.85" stop-color="#DBA94A"/>
<stop offset="1" stop-color="#BA7418"/>
</linearGradient>
<linearGradient id="paint70_linear_38_292" x1="97.488" y1="29.0624" x2="109.095" y2="60.2193" gradientUnits="userSpaceOnUse">
<stop stop-color="#BA7418"/>
<stop offset="0.04" stop-color="#C28124"/>
<stop offset="0.25" stop-color="#F4D06F"/>
<stop offset="0.35" stop-color="#F9DD95"/>
<stop offset="0.44" stop-color="#FDE5AF"/>
<stop offset="0.48" stop-color="#FFE9B9"/>
<stop offset="0.53" stop-color="#FDE5AC"/>
<stop offset="0.62" stop-color="#FADD8A"/>
<stop offset="0.67" stop-color="#F9D876"/>
<stop offset="0.73" stop-color="#F0CB69"/>
<stop offset="0.85" stop-color="#DBA94A"/>
<stop offset="1" stop-color="#BA7418"/>
</linearGradient>
<linearGradient id="paint71_linear_38_292" x1="97.488" y1="29.0624" x2="109.095" y2="60.2193" gradientUnits="userSpaceOnUse">
<stop stop-color="#BA7418"/>
<stop offset="0.04" stop-color="#C28124"/>
<stop offset="0.25" stop-color="#F4D06F"/>
<stop offset="0.35" stop-color="#F9DD95"/>
<stop offset="0.44" stop-color="#FDE5AF"/>
<stop offset="0.48" stop-color="#FFE9B9"/>
<stop offset="0.53" stop-color="#FDE5AC"/>
<stop offset="0.62" stop-color="#FADD8A"/>
<stop offset="0.67" stop-color="#F9D876"/>
<stop offset="0.73" stop-color="#F0CB69"/>
<stop offset="0.85" stop-color="#DBA94A"/>
<stop offset="1" stop-color="#BA7418"/>
</linearGradient>
<linearGradient id="paint72_linear_38_292" x1="97.488" y1="29.0624" x2="109.095" y2="60.2193" gradientUnits="userSpaceOnUse">
<stop stop-color="#BA7418"/>
<stop offset="0.04" stop-color="#C28124"/>
<stop offset="0.25" stop-color="#F4D06F"/>
<stop offset="0.35" stop-color="#F9DD95"/>
<stop offset="0.44" stop-color="#FDE5AF"/>
<stop offset="0.48" stop-color="#FFE9B9"/>
<stop offset="0.53" stop-color="#FDE5AC"/>
<stop offset="0.62" stop-color="#FADD8A"/>
<stop offset="0.67" stop-color="#F9D876"/>
<stop offset="0.73" stop-color="#F0CB69"/>
<stop offset="0.85" stop-color="#DBA94A"/>
<stop offset="1" stop-color="#BA7418"/>
</linearGradient>
</defs>
</svg>
