<svg width="25" height="24" viewBox="0 0 25 24" fill="none" xmlns="http://www.w3.org/2000/svg">
<path d="M20.0194 4.88134L19.2835 4.14539C19.0755 3.9374 18.6915 3.96941 18.4515 4.25736L15.8913 6.80132C14.7392 6.30538 13.4753 6.06538 12.1473 6.06538C8.19516 6.08132 4.77138 8.38529 3.12327 11.6975C3.02724 11.9055 3.02724 12.1614 3.12327 12.3374C3.8912 13.9054 5.04327 15.2015 6.48327 16.1774L4.38728 18.3054C4.14728 18.5454 4.11527 18.9293 4.27532 19.1374L5.01126 19.8733C5.21925 20.0813 5.60324 20.0493 5.84324 19.7613L19.8911 5.71345C20.1952 5.47358 20.2272 5.08962 20.0192 4.88161L20.0194 4.88134ZM12.9953 9.71322C12.7233 9.6492 12.4353 9.56925 12.1633 9.56925C10.8032 9.56925 9.71536 10.6573 9.71536 12.0172C9.71536 12.2892 9.77938 12.5771 9.85933 12.8492L8.78722 13.9052C8.46726 13.3452 8.29127 12.7211 8.29127 12.0172C8.29127 9.88924 10.0033 8.17722 12.1313 8.17722C12.8353 8.17722 13.4593 8.3532 14.0193 8.67316L12.9953 9.71322Z" fill="#666666" fill-opacity="0.8"/>
<path d="M21.1714 11.6974C20.6114 10.5774 19.8754 9.56945 18.9635 8.75342L15.9874 11.6974V12.0174C15.9874 14.1454 14.2754 15.8574 12.1474 15.8574H11.8275L9.93948 17.7454C10.6435 17.8893 11.3795 17.9854 12.0995 17.9854C16.0516 17.9854 19.4754 15.6814 21.1235 12.3532C21.2675 12.1292 21.2675 11.9053 21.1715 11.6973L21.1714 11.6974Z" fill="#666666" fill-opacity="0.8"/>
</svg>
