<svg width="24" height="24" viewBox="0 0 24 24" fill="none" xmlns="http://www.w3.org/2000/svg">
<path d="M22.0635 12.2235C22.0635 11.3961 21.995 10.7924 21.8467 10.1663H12.2064V13.9005H17.865C17.751 14.8285 17.1349 16.2261 15.7659 17.1652L15.7467 17.2902L18.7948 19.6044L19.0059 19.625C20.9454 17.8696 22.0635 15.2869 22.0635 12.2235Z" fill="#4285F4"/>
<path d="M12.2051 22.0624C14.9774 22.0624 17.3047 21.1679 19.0046 19.6251L15.7646 17.1652C14.8975 17.7578 13.7338 18.1715 12.2051 18.1715C9.48983 18.1715 7.18529 16.4162 6.36379 13.99L6.24338 14L3.07392 16.4039L3.03247 16.5168C4.72094 19.8039 8.18919 22.0624 12.2051 22.0624Z" fill="#34A853"/>
<path d="M6.36544 13.9902C6.14868 13.3641 6.02323 12.6932 6.02323 12C6.02323 11.3068 6.14868 10.636 6.35404 10.0099L6.3483 9.87652L3.13911 7.43408L3.03411 7.48303C2.33821 8.84707 1.9389 10.3788 1.9389 12C1.9389 13.6212 2.33821 15.1529 3.03411 16.5169L6.36544 13.9902Z" fill="#FBBC05"/>
<path d="M12.2051 5.82831C14.1332 5.82831 15.4338 6.64448 16.1753 7.32654L19.0732 4.55375C17.2935 2.93257 14.9774 1.9375 12.2051 1.9375C8.18922 1.9375 4.72095 4.19595 3.03247 7.48301L6.3524 10.0099C7.18532 7.58367 9.48987 5.82831 12.2051 5.82831Z" fill="#EB4335"/>
</svg>
